<?xml version="1.0" encoding="utf-8"?>
<!-- Generator: Adobe Illustrator 23.0.0, SVG Export Plug-In . SVG Version: 6.00 Build 0)  -->
<svg version="1.1" id="Layer_1" xmlns="http://www.w3.org/2000/svg" xmlns:xlink="http://www.w3.org/1999/xlink" x="0px" y="0px"
	 viewBox="0 0 841.89 595.28" style="enable-background:new 0 0 841.89 595.28;" xml:space="preserve">
<style type="text/css">
	.st0{fill:url(#SVGID_1_);}
</style>
<linearGradient id="SVGID_1_" gradientUnits="userSpaceOnUse" x1="65.6828" y1="298.2486" x2="535.5699" y2="298.2486">
	<stop  offset="0" style="stop-color:#772338"/>
	<stop  offset="1" style="stop-color:#47272D"/>
</linearGradient>
<path class="st0" d="M518.75,328.09c-0.28,0.02-0.57,0.11-0.86,0.33c-1.66,1.25,0.2,3.8,1.86,2.55c1.33-1,0.4-2.83-0.87-2.88
	c8.16-14.12,26.71,10.5,4.52,17.6c-14.37,4.57-36.56-18.01-8.58-51.11c-9.91,19.21,10.47,29.89,17.11,18.82
	c3.77-6.1-1.83-13.15-6.92-10.85c-0.53-0.33-1.22-0.39-1.89,0.12c-1.85,1.39,0.22,4.24,2.07,2.84c1.08-0.81,0.82-2.1,0.06-2.78
	c5.41-1.36,9.41,7.42,3.3,11.26c-8.18,5.18-20.92-5.88-7.84-23.6c-10.5-11.88-7.57-21.5-1.44-24.35c12.59-5.83,13.51,14,4.82,11.72
	c0.76-0.72,0.94-2.1-0.24-2.83c-1.97-1.22-3.78,1.8-1.82,3.02c0.69,0.43,1.36,0.33,1.86-0.03c7.28,2.86,12.28-12.06,0.65-14.77
	c-6.58-1.56-12.67,3.71-13.53,10.48c-0.73,5.5,1.55,10.16,3.55,13.22c-40.48-39.92,6.35-68.58,15.01-42.26
	c3.06,9.7-7.96,16.58-13.94,8.41c1.25-0.18,2-2.07,0.6-2.94c-1.76-1.1-3.39,1.61-1.63,2.71c0.29,0.18,0.58,0.25,0.85,0.25
	c11.96,22.62,28.75-23.97-2.07-20.59c-4.23,0.5-8.85,3.17-12.35,7.49c0.33-3.18-0.54-5.89-2.64-8.3
	c29.05,9.3,28.37-38.07,8.67-27.26c-2.7,1.46-4.39,4.24-4.15,8.19c-0.24,0.16-0.45,0.39-0.59,0.73c-0.82,1.92,2.04,3.19,2.86,1.26
	c0.66-1.54-1.05-2.66-2.18-2.05c0.12-16.38,28.3-4.47,12.58,12.94c-10.05,11.1-40.67,3.44-32.59-39.92
	c0.87,21.68,23.78,20.59,24.08,7.63c0.26-7.2-8.05-10.46-11.33-5.88c-0.62-0.02-1.25,0.29-1.58,1.06c-0.92,2.15,2.28,3.56,3.2,1.41
	c0.53-1.25-0.32-2.24-1.31-2.44c4.01-3.93,11.8,1.64,8.4,8.07c-4.54,8.65-21.01,5.53-18.41-16.45
	c-14.94-4.96-17.14-14.78-13.24-20.36c8.03-11.44,18.59,5.26,9.95,7.7c0.3-1.01-0.22-2.29-1.6-2.33c-2.31-0.06-2.39,3.48-0.09,3.54
	c0.81,0.02,1.34-0.41,1.6-0.97c7.71-1.23,4.7-16.68-6.71-13.12c-6.47,1.99-9.15,9.65-6.56,15.94c2.07,5.12,6.34,8.01,9.57,9.64
	c-54.69-14.02-28.24-62.61-7.79-44.22c7.43,6.85,1.27,18.4-7.94,14.36c1-0.79,0.72-2.81-0.93-2.85c-2.07-0.05-2.14,3.12-0.08,3.17
	c0.34,0.01,0.62-0.08,0.86-0.21c21.49,13.51,13.1-35.36-11.93-16.78c-3.42,2.58-6.1,7.26-7,12.78c-1.23-2.83-3.22-4.72-6.07-5.76
	c8.84-2.48,15.11-10.24,13.86-19.51c-2.8-21.39-28.09-12.1-19.65,0.6c-0.13,0.25-0.19,0.56-0.15,0.92c0.23,2.08,3.34,1.73,3.1-0.36
	c-0.19-1.67-2.21-1.77-2.89-0.67c-7.96-14.24,22.31-18.25,17.26,4.82c-3.29,14.93-33.64,23.15-47.87-18.01
	c11.43,18.32,30.72,5.74,24.6-5.64c-3.31-6.37-12.12-4.97-12.71,0.66c-0.55,0.3-0.94,0.88-0.85,1.72c0.26,2.32,3.72,1.93,3.46-0.4
	c-0.15-1.35-1.38-1.78-2.34-1.44c1.54-5.44,11.03-4.57,11.25,2.72c0.33,9.79-15.47,15.46-24.04-4.9
	c-15.38,3.29-22.12-4.09-21.48-10.91c1.33-13.99,18.69-4.88,12.4,1.61c-0.24-1.03-1.32-1.88-2.53-1.21
	c-2.03,1.12-0.36,4.23,1.66,3.11c0.71-0.39,0.96-1.04,0.91-1.65c6.08-4.98-4.14-16.83-12.27-7.95c-4.62,5.01-3.17,13.01,2.17,17.14
	c4.32,3.39,9.44,3.72,13.04,3.49c-54.27,15.65-55.29-39.88-28.53-34.33c9.8,2.16,10.15,15.29,0.2,16.47c0.47-1.19-0.76-2.8-2.21-2
	c-1.82,1-0.32,3.79,1.49,2.79c0.3-0.17,0.5-0.38,0.64-0.62c25.26,0.79-6.06-37.27-18.59-8.48c-1.69,3.98-1.71,9.4,0.23,14.64
	c-2.47-1.83-5.13-2.46-8.12-1.91c6.46-6.63,8.07-16.55,2.43-23.95c-12.96-17.1-30.29,3.79-16.72,10.51
	c0.01,0.28,0.11,0.58,0.32,0.87c1.23,1.69,3.74-0.2,2.51-1.89c-0.98-1.35-2.79-0.41-2.84,0.89c-13.9-8.29,10.33-27.13,17.32-4.59
	c4.13,13.4-14.28,33.48-42.55,14.68c-28.27,18.8-46.68-1.28-42.55-14.68c6.99-22.54,31.22-3.7,17.32,4.59
	c-0.05-1.3-1.85-2.24-2.84-0.89c-1.23,1.69,1.28,3.57,2.51,1.89c0.21-0.29,0.31-0.59,0.32-0.87c13.57-6.71-3.76-27.61-16.72-10.51
	c-5.65,7.4-4.03,17.32,2.43,23.95c-2.99-0.55-5.65,0.08-8.12,1.91c1.95-5.24,1.93-10.66,0.23-14.64
	c-12.53-28.79-43.85,9.27-18.59,8.48c0.13,0.24,0.33,0.45,0.64,0.62c1.81,1,3.31-1.78,1.49-2.79c-1.45-0.8-2.68,0.81-2.21,2
	c-9.96-1.18-9.61-14.31,0.2-16.47c26.77-5.55,25.74,49.98-28.53,34.33c3.6,0.23,8.72-0.1,13.04-3.49
	c5.34-4.13,6.79-12.13,2.17-17.14c-8.13-8.88-18.35,2.97-12.27,7.95c-0.06,0.62,0.19,1.26,0.91,1.65c2.02,1.12,3.69-1.99,1.66-3.11
	c-1.21-0.67-2.29,0.18-2.53,1.21c-6.29-6.5,11.08-15.6,12.4-1.61c0.63,6.82-6.1,14.2-21.48,10.91c-8.57,20.36-24.37,14.69-24.04,4.9
	c0.22-7.29,9.71-8.16,11.25-2.72c-0.95-0.33-2.19,0.09-2.34,1.44c-0.26,2.33,3.2,2.73,3.46,0.4c0.09-0.84-0.3-1.42-0.85-1.72
	c-0.59-5.63-9.4-7.03-12.71-0.66c-6.12,11.38,13.18,23.96,24.6,5.64c-14.23,41.16-44.58,32.93-47.87,18.01
	c-5.04-23.07,25.22-19.06,17.26-4.82c-0.68-1.1-2.71-1-2.89,0.67c-0.23,2.09,2.87,2.44,3.1,0.36c0.04-0.36-0.02-0.67-0.15-0.92
	c8.44-12.7-16.85-21.99-19.65-0.6c-1.24,9.27,5.02,17.04,13.86,19.51c-2.85,1.04-4.83,2.93-6.07,5.76c-0.9-5.52-3.58-10.19-7-12.78
	c-25.03-18.57-33.41,30.3-11.93,16.78c0.23,0.14,0.51,0.22,0.86,0.21c2.06-0.05,1.99-3.23-0.08-3.17c-1.64,0.04-1.93,2.06-0.93,2.85
	c-9.2,4.04-15.36-7.52-7.94-14.36c20.45-18.4,46.89,30.2-7.79,44.22c3.23-1.64,7.5-4.52,9.57-9.64c2.59-6.29-0.09-13.95-6.56-15.94
	c-11.41-3.56-14.42,11.89-6.71,13.12c0.25,0.56,0.78,0.99,1.6,0.97c2.3-0.06,2.22-3.6-0.09-3.54c-1.38,0.04-1.9,1.32-1.6,2.33
	c-8.64-2.43,1.91-19.14,9.95-7.7c3.9,5.58,1.71,15.4-13.24,20.36c2.6,21.99-13.87,25.1-18.41,16.45c-3.4-6.43,4.39-12,8.4-8.07
	c-0.99,0.2-1.85,1.19-1.31,2.44c0.92,2.15,4.11,0.74,3.2-1.41c-0.33-0.77-0.96-1.08-1.58-1.06c-3.28-4.58-11.6-1.31-11.33,5.88
	c0.3,12.96,23.22,14.06,24.08-7.63c8.08,43.36-22.54,51.02-32.59,39.92c-15.72-17.42,12.46-29.32,12.58-12.94
	c-1.13-0.61-2.83,0.51-2.18,2.05c0.82,1.93,3.69,0.66,2.86-1.26c-0.14-0.34-0.35-0.57-0.59-0.73c0.24-3.95-1.45-6.73-4.15-8.19
	c-19.71-10.81-20.38,36.56,8.67,27.26c-2.1,2.4-2.97,5.12-2.64,8.3c-3.49-4.32-8.12-6.99-12.35-7.49
	c-30.81-3.37-14.02,43.21-2.07,20.59c0.27,0,0.56-0.07,0.85-0.25c1.76-1.09,0.13-3.8-1.63-2.71c-1.4,0.87-0.65,2.76,0.6,2.94
	c-5.98,8.17-17,1.29-13.94-8.41c8.66-26.32,55.48,2.34,15.01,42.26c1.99-3.06,4.28-7.72,3.55-13.22
	c-0.85-6.76-6.95-12.04-13.53-10.48c-11.63,2.71-6.64,17.63,0.65,14.77c0.5,0.36,1.17,0.46,1.86,0.03c1.96-1.22,0.15-4.24-1.82-3.02
	c-1.18,0.73-0.99,2.1-0.24,2.83c-8.68,2.28-7.76-17.54,4.82-11.72c6.13,2.85,9.06,12.47-1.44,24.35
	c13.07,17.72,0.34,28.78-7.84,23.6c-6.11-3.84-2.11-12.62,3.3-11.26c-0.76,0.67-1.01,1.97,0.06,2.78c1.85,1.39,3.92-1.45,2.07-2.84
	c-0.67-0.5-1.36-0.45-1.89-0.12c-5.09-2.3-10.69,4.75-6.92,10.85c6.64,11.07,27.02,0.39,17.11-18.82
	c27.97,33.1,5.79,55.68-8.58,51.11c-22.19-7.1-3.64-31.72,4.52-17.6c-1.28,0.05-2.2,1.88-0.87,2.88c1.66,1.25,3.52-1.3,1.86-2.55
	c-0.29-0.22-0.58-0.31-0.86-0.33c-6.61-13.78-27.18,3.82-10.34,16.98c7.28,5.73,17.04,4.1,23.57-2.44
	c-0.54,3.02,0.08,5.72,1.88,8.22c-5.16-1.97-10.48-1.95-14.39-0.23c-28.35,12.73,9.13,44.54,8.35,18.88
	c0.23-0.13,0.45-0.34,0.61-0.65c0.99-1.84-1.76-3.36-2.74-1.52c-0.79,1.47,0.79,2.72,1.97,2.24c-1.16,10.11-14.09,9.76-16.21-0.2
	c-5.46-27.19,49.2-26.15,33.8,28.96c0.22-3.66-0.11-8.86-3.44-13.24c-4.07-5.42-11.94-6.89-16.87-2.2
	c-8.74,8.25,2.93,18.64,7.83,12.46c0.61,0.06,1.24-0.19,1.63-0.92c1.1-2.06-1.96-3.75-3.06-1.69c-0.66,1.23,0.18,2.33,1.19,2.57
	c-6.39,6.38-15.36-11.25-1.59-12.6c6.71-0.64,13.98,6.2,10.74,21.82c20.05,8.71,14.46,24.75,4.82,24.42
	c-7.18-0.22-8.04-9.86-2.68-11.43c-0.33,0.97,0.09,2.22,1.42,2.37c2.29,0.27,2.68-3.25,0.39-3.52c-0.83-0.1-1.4,0.3-1.7,0.86
	c-5.54,0.6-6.92,9.55-0.65,12.91c11.2,6.21,23.59-13.38,5.55-24.99c40.52,14.46,32.42,45.28,17.73,48.62
	c-22.71,5.12-18.77-25.62-4.75-17.53c-1.08,0.69-0.98,2.75,0.66,2.94c2.05,0.24,2.41-2.91,0.35-3.15c-0.36-0.04-0.66,0.02-0.91,0.15
	c-12.5-8.57-21.65,17.11-0.59,19.96c9.12,1.26,16.77-5.1,19.21-14.08c1.02,2.89,2.88,4.91,5.67,6.16
	c-5.43,0.91-10.04,3.64-12.58,7.11c-18.28,25.42,29.83,33.94,16.52,12.11c0.14-0.24,0.22-0.52,0.21-0.87
	c-0.05-2.1-3.18-2.02-3.12,0.08c0.04,1.67,2.03,1.96,2.81,0.94c3.97,9.35-7.4,15.61-14.14,8.06c-18.11-20.77,29.73-47.63,43.53,7.92
	c-1.61-3.28-4.45-7.61-9.49-9.72c-6.19-2.63-13.73,0.09-15.7,6.66c-3.51,11.59,11.71,14.65,12.92,6.82c0.55-0.26,0.98-0.8,0.96-1.62
	c-0.06-2.34-3.54-2.25-3.48,0.09c0.04,1.4,1.3,1.93,2.29,1.62c-2.4,8.78-18.84-1.94-7.58-10.1c5.5-3.96,15.16-1.73,20.04,13.44
	c21.65-2.64,24.71,14.09,16.2,18.7c-6.33,3.46-11.81-4.46-7.94-8.53c0.19,1.01,1.17,1.88,2.4,1.33c2.12-0.93,0.72-4.18-1.39-3.25
	c-0.76,0.34-1.06,0.97-1.05,1.61c-4.51,3.33-1.29,11.78,5.79,11.51c12.76-0.31,13.84-23.58-7.51-24.46
	c42.69-8.2,50.23,22.9,39.3,33.11c-17.15,15.97-28.86-12.65-12.74-12.78c-0.6,1.15,0.5,2.88,2.02,2.21c1.9-0.84,0.65-3.75-1.24-2.91
	c-0.33,0.15-0.56,0.36-0.71,0.6c-3.89-0.25-6.62,1.47-8.06,4.21c-10.64,20.02,35.99,20.7,26.84-8.8c2.36,2.14,5.04,3.02,8.17,2.68
	c-4.25,3.55-6.88,8.25-7.37,12.54c-3.32,31.3,42.54,14.24,20.27,2.1c0-0.27-0.07-0.56-0.24-0.86c-1.08-1.79-3.74-0.14-2.66,1.66
	c0.86,1.43,2.72,0.66,2.9-0.61c8.04,6.08,1.27,17.27-8.28,14.16c-25.91-8.79,2.31-56.36,41.61-15.25c-3.01-2.03-7.6-4.34-13.01-3.6
	c-6.66,0.87-11.85,7.06-10.31,13.74c2.67,11.82,17.35,6.74,14.54-0.66c0.35-0.5,0.45-1.19,0.03-1.89c-1.2-2-4.18-0.15-2.97,1.85
	c0.72,1.2,2.07,1.01,2.78,0.24c2.25,8.82-17.27,7.89-11.54-4.9c2.81-6.22,12.28-9.2,23.98,1.46c2.74-2.09,5.32-3.52,7.7-4.44
	c2.38,0.91,4.96,2.35,7.7,4.44c11.7-10.66,21.17-7.69,23.98-1.46c5.74,12.79-13.78,13.72-11.54,4.9c0.71,0.77,2.06,0.96,2.78-0.24
	c1.2-2-1.77-3.84-2.97-1.85c-0.42,0.7-0.32,1.39,0.03,1.89c-2.81,7.4,11.87,12.48,14.54,0.66c1.53-6.68-3.66-12.87-10.31-13.74
	c-5.41-0.74-10,1.58-13.01,3.6c39.3-41.11,67.52,6.45,41.61,15.25c-9.55,3.11-16.32-8.08-8.28-14.16c0.18,1.27,2.04,2.03,2.9,0.61
	c1.08-1.79-1.59-3.45-2.66-1.66c-0.18,0.3-0.25,0.59-0.24,0.86c-22.27,12.14,23.6,29.2,20.27-2.1c-0.49-4.3-3.12-8.99-7.37-12.54
	c3.13,0.33,5.8-0.55,8.17-2.68c-9.16,29.51,37.48,28.82,26.84,8.8c-1.44-2.74-4.17-4.46-8.06-4.21c-0.15-0.24-0.38-0.45-0.71-0.6
	c-1.89-0.84-3.14,2.07-1.24,2.91c1.52,0.67,2.62-1.06,2.02-2.21c16.12,0.12,4.41,28.75-12.74,12.78
	c-10.92-10.21-3.39-41.31,39.3-33.11c-21.35,0.88-20.27,24.15-7.51,24.46c7.09,0.27,10.3-8.18,5.79-11.51
	c0.02-0.63-0.28-1.27-1.05-1.61c-2.11-0.93-3.5,2.31-1.39,3.25c1.23,0.54,2.21-0.33,2.4-1.33c3.87,4.08-1.62,11.99-7.94,8.53
	c-8.51-4.61-5.45-21.34,16.2-18.7c4.88-15.18,14.55-17.41,20.04-13.44c11.26,8.16-5.18,18.88-7.58,10.1c1,0.3,2.26-0.22,2.29-1.62
	c0.06-2.34-3.42-2.43-3.48-0.09c-0.02,0.83,0.4,1.36,0.96,1.62c1.21,7.84,16.42,4.77,12.92-6.82c-1.96-6.57-9.5-9.29-15.7-6.66
	c-5.04,2.1-7.88,6.44-9.49,9.72c13.8-55.55,61.64-28.69,43.53-7.92c-6.74,7.54-18.11,1.29-14.14-8.06c0.78,1.01,2.77,0.73,2.81-0.94
	c0.05-2.1-3.07-2.18-3.12-0.08c-0.01,0.35,0.08,0.63,0.21,0.87c-13.31,21.83,34.81,13.31,16.52-12.11
	c-2.54-3.48-7.14-6.2-12.58-7.11c2.79-1.25,4.65-3.27,5.67-6.16c2.44,8.98,10.09,15.35,19.21,14.08
	c21.06-2.85,11.91-28.53-0.59-19.96c-0.25-0.13-0.55-0.2-0.91-0.15c-2.05,0.24-1.7,3.39,0.35,3.15c1.64-0.19,1.74-2.25,0.66-2.94
	c14.02-8.08,17.97,22.66-4.75,17.53c-14.7-3.34-22.79-34.17,17.73-48.62c-18.04,11.61-5.65,31.2,5.55,24.99
	c6.27-3.37,4.89-12.31-0.65-12.91c-0.3-0.56-0.87-0.96-1.7-0.86c-2.29,0.27-1.9,3.78,0.39,3.52c1.33-0.15,1.75-1.4,1.42-2.37
	c5.36,1.57,4.5,11.21-2.68,11.43c-9.64,0.33-15.22-15.71,4.82-24.42c-3.24-15.62,4.03-22.46,10.74-21.82
	c13.77,1.35,4.8,18.98-1.59,12.6c1.01-0.24,1.85-1.34,1.19-2.57c-1.1-2.06-4.16-0.36-3.06,1.69c0.39,0.73,1.02,0.98,1.63,0.92
	c4.9,6.17,16.57-4.21,7.83-12.46c-4.93-4.69-12.8-3.22-16.87,2.2c-3.33,4.38-3.66,9.58-3.44,13.24
	c-15.39-55.12,39.26-56.15,33.8-28.96c-2.12,9.96-15.05,10.31-16.21,0.2c1.17,0.48,2.75-0.78,1.97-2.24
	c-0.99-1.85-3.73-0.33-2.74,1.52c0.16,0.3,0.38,0.51,0.61,0.65c-0.78,25.66,36.69-6.16,8.35-18.88c-3.91-1.72-9.24-1.74-14.39,0.23
	c1.8-2.5,2.41-5.19,1.88-8.22c6.53,6.54,16.29,8.17,23.57,2.44C545.94,331.9,525.36,314.3,518.75,328.09z M507.44,283.18
	c9.23,10.48,9.16,4.01,0.68,15.55c-8.91,12.24-10.9,23.3-9.02,31.88c-3.29-4.13-7.78-8.8-13.46-14.15
	c0.56-7.52-2.72-16.03-12.54-23.95c9.03-8.71,11.57-17.48,10.39-24.94c5.22-5.88,9.33-10.96,12.25-15.39
	C494.5,260.74,497.24,271.47,507.44,283.18z M447.15,325.26c0.13-1.41,0.01-2.79-0.31-4.09c0.68-8.43,9.1-16.09,16.86-9.68
	c5,4.03,3.99,11.52-1.28,13.41c0.25-1.15-0.64-2.57-2.14-2.16c-2.22,0.61-1.32,4.03,0.91,3.42c0.67-0.18,1.05-0.62,1.21-1.13
	c5.73-1.53,7.37-9.64,2.04-14.4c-6.91-6.31-16.35-1.02-19.16,6.92c-2.53-4-7.18-6.3-11.64-4.6c-6.14,2.3-7.27,9.81-2.71,12.71
	c0.02,0.6,0.34,1.19,1.07,1.5c2.13,0.9,3.47-2.37,1.34-3.27c-1.33-0.56-2.35,0.51-2.41,1.6c-5.04-4.03-0.44-12.88,6.84-11.31
	c3.35,0.82,5.88,3.48,6.77,6.77c-0.13,1.34-0.06,2.72,0.24,4.1c-0.35,2.46-1.61,4.99-4.04,7.23c1.27,3.05,1.34,5.92,0.62,8.33
	c-0.82,1.1-1.44,2.29-1.88,3.54c-2.15,2.61-5.5,3.97-8.96,3.27c-7.24-1.69-7.75-11.69-1.5-13.19c-0.4,1.02,0.08,2.43,1.52,2.49
	c2.3,0.1,2.44-3.44,0.14-3.54c-0.79-0.03-1.32,0.36-1.59,0.9c-5.32,0.69-7.44,7.96-2.82,12.69c3.34,3.45,8.5,3.36,12.46,0.82
	c-0.73,8.4,5.66,17.22,14.5,14.47c6.79-2.03,8.7-10.09,4.13-13.93c0.07-0.53-0.09-1.09-0.62-1.54c-1.77-1.51-4,1.21-2.24,2.71
	c1.19,1.01,2.59,0.12,2.84-1.04c3.99,3.97,1.8,11.2-4.41,12.71c-9.71,2.49-14.15-8.07-11.25-16.01c0.83-1.03,1.5-2.22,1.96-3.54
	c2.94-3.71,8.22-5.84,16.22-3.74c9.26,2.41,16.36,15.28,12.54,26.48c-6.73,2.42-13.67,4.4-20.65,6.19
	c-17.25,4.4-14.84,1.06-8.77,17.14c2.58,6.86,4.96,13.76,6.87,20.73c-6.84,9.61-21.3,11.08-28.54,4.78
	c-6.29-5.44-7.61-11.05-6.32-15.62c0.81-1.16,1.39-2.41,1.74-3.7c4.74-6.96,15.81-9.31,19.37,0.18c2.35,6.02-2.22,12-7.71,10.96
	c0.78-0.87,0.71-2.55-0.79-2.96c-2.23-0.6-3.13,2.82-0.9,3.42c0.67,0.18,1.21,0,1.59-0.36c5.72,1.59,11.13-4.61,8.87-11.44
	c-2.88-8.97-13.65-9.19-20-3.73c-0.22-4.75-3.12-9.1-7.81-9.9c-6.45-1.13-11.12,4.8-8.61,9.63c-0.28,0.53-0.29,1.2,0.19,1.84
	c1.4,1.86,4.17-0.29,2.77-2.15c-0.88-1.16-2.29-0.76-2.88,0.16c-2.38-6.05,5.96-11.38,11.49-6.32c2.5,2.42,3.37,6.02,2.51,9.33
	c-0.76,1.08-1.36,2.29-1.78,3.61c-1.52,1.96-3.85,3.54-7.07,4.24c-0.41,3.31-1.78,5.83-3.62,7.55c-1.22,0.53-2.32,1.23-3.29,2.07
	c-3.15,1.19-6.74,0.68-9.39-1.7c-5.44-5.14-0.96-14.06,5.19-12.18c-0.85,0.68-1.12,2.14,0.09,2.93c1.95,1.25,3.81-1.74,1.87-2.99
	c-0.67-0.43-1.32-0.35-1.82-0.03c-4.94-2.11-10.36,3.11-8.69,9.56c1.2,4.68,5.71,7.23,10.39,7.04c-4.77,6.9-3.58,17.79,5.43,19.9
	c6.88,1.69,12.5-4.32,10.43-9.97c0.32-0.42,0.46-0.99,0.22-1.65c-0.79-2.2-4.06-0.99-3.27,1.21c0.53,1.48,2.18,1.41,2.97,0.54
	c1.5,5.46-3.95,10.61-10.07,8.77c-9.64-2.78-8.28-14.18-1.86-19.58c1.22-0.47,2.39-1.16,3.45-2.07c4.37-1.72,10-0.88,15.88,5
	c6.83,6.79,6.64,21.54-2.18,29.3c-7.02-1.32-14-3.13-20.93-5.13c-17.11-4.95-13.37-6.62-16.04,10.39
	c-1.15,7.25-2.48,14.44-4.25,21.44c-10.65,4.84-23.9-1.22-27.07-10.36c-2.77-7.9-1.15-13.44,2.22-16.73
	c1.27-0.59,2.39-1.38,3.33-2.32c7.53-3.62,18.27-0.04,16.69,9.99c-0.93,6.41-7.83,9.27-12.08,5.58c1.11-0.36,1.87-1.85,0.77-2.96
	c-1.63-1.65-4.09,0.85-2.46,2.5c0.49,0.5,1.06,0.61,1.57,0.49c4.17,4.28,11.9,1.66,13.3-5.4c1.92-9.23-7.3-14.89-15.48-13.39
	c2.14-4.23,1.78-9.46-1.89-12.54c-5.03-4.25-12-1.49-12.2,3.97c-0.5,0.32-0.84,0.89-0.74,1.69c0.3,2.32,3.75,1.87,3.45-0.46
	c-0.19-1.45-1.61-1.82-2.57-1.32c0.92-6.45,10.76-6.82,13.06,0.36c0.98,3.36-0.02,6.91-2.39,9.35c-1.21,0.56-2.35,1.31-3.37,2.27
	c-2.27,0.92-5.06,1.08-8.18,0.06c-1.97,2.64-4.37,4.14-6.8,4.71c-1.35-0.17-2.68-0.12-3.96,0.12c-3.3-0.58-6.14-2.85-7.26-6.25
	c-2.18-7.22,6.09-12.66,10.49-7.92c-1.07,0.16-2.03,1.28-1.36,2.58c1.07,2.08,4.15,0.43,3.09-1.64c-0.37-0.71-0.97-0.98-1.56-0.95
	c-3.24-4.33-10.51-2.57-12.23,3.87c-1.27,4.66,1.39,9.16,5.53,11.37c-7.53,3.56-11.85,13.59-5.09,19.99
	c5.13,4.96,12.95,2.61,13.94-3.34c0.48-0.2,0.88-0.62,1-1.32c0.4-2.31-3.03-2.92-3.43-0.62c-0.27,1.55,1.19,2.33,2.3,1.98
	c-1.39,5.49-8.65,7.18-13.04,2.48c-6.98-7.3-0.19-16.49,8.03-17.91c1.29,0.21,2.64,0.21,4-0.04c4.63,0.73,9.09,4.31,11.3,12.4
	c2.57,9.35-4.85,22.03-16.31,24.27c-5.43-4.71-10.58-9.82-15.61-15.07c-10.33-10.83-9.24-12.27-14.79-4.69
	c-5.55-7.58-4.47-6.13-14.79,4.69c-5.02,5.25-10.18,10.36-15.61,15.07c-11.46-2.24-18.88-14.92-16.31-24.27
	c2.2-8.08,6.67-11.67,11.3-12.4c1.36,0.25,2.71,0.26,4,0.04c8.22,1.42,15.01,10.61,8.03,17.91c-4.39,4.71-11.65,3.02-13.04-2.48
	c1.11,0.35,2.57-0.43,2.3-1.98c-0.4-2.3-3.83-1.69-3.43,0.62c0.12,0.7,0.52,1.12,1,1.32c0.99,5.94,8.81,8.3,13.94,3.34
	c6.76-6.4,2.43-16.43-5.09-19.99c4.14-2.21,6.8-6.71,5.53-11.37c-1.72-6.43-8.99-8.2-12.23-3.87c-0.59-0.03-1.2,0.24-1.56,0.95
	c-1.07,2.07,2.02,3.72,3.09,1.64c0.67-1.3-0.29-2.42-1.36-2.58c4.4-4.74,12.67,0.7,10.49,7.92c-1.12,3.39-3.96,5.66-7.26,6.25
	c-1.28-0.24-2.61-0.29-3.96-0.12c-2.42-0.57-4.83-2.07-6.8-4.71c-3.12,1.02-5.91,0.86-8.18-0.06c-1.03-0.96-2.16-1.71-3.37-2.27
	c-2.36-2.43-3.37-5.99-2.39-9.35c2.3-7.19,12.14-6.81,13.06-0.36c-0.97-0.5-2.39-0.13-2.57,1.32c-0.3,2.32,3.16,2.78,3.45,0.46
	c0.1-0.8-0.24-1.37-0.74-1.69c-0.2-5.46-7.17-8.22-12.2-3.97c-3.67,3.08-4.04,8.31-1.89,12.54c-8.18-1.5-17.4,4.16-15.48,13.39
	c1.4,7.06,9.13,9.68,13.3,5.4c0.51,0.12,1.08,0.01,1.57-0.49c1.63-1.65-0.83-4.16-2.46-2.5c-1.1,1.11-0.34,2.61,0.77,2.96
	c-4.25,3.69-11.14,0.83-12.08-5.58c-1.59-10.03,9.16-13.61,16.69-9.99c0.94,0.94,2.06,1.73,3.33,2.32c3.36,3.3,4.98,8.83,2.22,16.73
	c-3.17,9.13-16.42,15.2-27.07,10.36c-1.78-7.01-3.1-14.19-4.25-21.44c-2.66-17,1.07-15.34-16.04-10.39
	c-6.94,1.99-13.91,3.8-20.93,5.13c-8.82-7.76-9.01-22.51-2.18-29.3c5.89-5.88,11.52-6.72,15.88-5c1.06,0.91,2.22,1.6,3.45,2.07
	c6.42,5.4,7.77,16.81-1.86,19.58c-6.12,1.84-11.57-3.31-10.07-8.77c0.79,0.87,2.44,0.94,2.97-0.54c0.79-2.2-2.49-3.41-3.27-1.21
	c-0.24,0.66-0.1,1.23,0.22,1.65c-2.06,5.65,3.55,11.66,10.43,9.97c9.01-2.11,10.19-12.99,5.43-19.9c4.67,0.19,9.19-2.36,10.39-7.04
	c1.68-6.44-3.75-11.66-8.69-9.56c-0.5-0.33-1.15-0.4-1.82,0.03c-1.94,1.25-0.08,4.24,1.87,2.99c1.22-0.78,0.94-2.25,0.09-2.93
	c6.15-1.87,10.63,7.04,5.19,12.18c-2.65,2.38-6.24,2.88-9.39,1.7c-0.97-0.84-2.07-1.54-3.29-2.07c-1.84-1.72-3.21-4.24-3.62-7.55
	c-3.22-0.71-5.56-2.28-7.07-4.24c-0.42-1.32-1.02-2.53-1.78-3.61c-0.86-3.32,0.01-6.92,2.51-9.33c5.53-5.05,13.87,0.27,11.49,6.32
	c-0.59-0.92-2-1.33-2.88-0.16c-1.4,1.86,1.37,4.01,2.77,2.15c0.48-0.64,0.46-1.31,0.19-1.84c2.51-4.83-2.16-10.76-8.61-9.63
	c-4.7,0.8-7.59,5.15-7.81,9.9c-6.34-5.45-17.12-5.24-20,3.73c-2.27,6.83,3.15,13.03,8.87,11.44c0.38,0.36,0.93,0.54,1.59,0.36
	c2.23-0.6,1.33-4.02-0.9-3.42c-1.5,0.41-1.58,2.08-0.79,2.96c-5.5,1.04-10.06-4.94-7.71-10.96c3.57-9.49,14.63-7.14,19.37-0.18
	c0.36,1.29,0.94,2.54,1.74,3.7c1.29,4.56-0.03,10.18-6.32,15.62c-7.24,6.3-21.7,4.82-28.54-4.78c1.91-6.97,4.3-13.87,6.87-20.73
	c6.06-16.08,8.48-12.74-8.77-17.14c-6.99-1.8-13.92-3.77-20.65-6.19c-3.82-11.2,3.28-24.07,12.54-26.48c8-2.1,13.28,0.03,16.22,3.74
	c0.47,1.32,1.14,2.51,1.96,3.54c2.9,7.94-1.54,18.5-11.25,16.01c-6.21-1.51-8.4-8.74-4.41-12.71c0.25,1.15,1.65,2.05,2.84,1.04
	c1.76-1.5-0.47-4.22-2.24-2.71c-0.53,0.45-0.7,1.02-0.62,1.54c-4.57,3.85-2.67,11.9,4.13,13.93c8.84,2.75,15.22-6.07,14.5-14.47
	c3.96,2.54,9.12,2.62,12.46-0.82c4.62-4.73,2.5-12-2.82-12.69c-0.27-0.54-0.8-0.93-1.59-0.9c-2.3,0.1-2.16,3.63,0.14,3.54
	c1.44-0.06,1.92-1.47,1.52-2.49c6.24,1.5,5.74,11.49-1.5,13.19c-3.45,0.71-6.81-0.65-8.96-3.27c-0.43-1.25-1.05-2.44-1.88-3.54
	c-0.73-2.41-0.65-5.28,0.62-8.33c-2.43-2.24-3.69-4.77-4.04-7.23c0.3-1.38,0.37-2.76,0.24-4.1c0.89-3.3,3.42-5.96,6.77-6.77
	c7.28-1.57,11.88,7.28,6.84,11.31c-0.06-1.1-1.08-2.16-2.41-1.6c-2.13,0.9-0.79,4.17,1.34,3.27c0.73-0.31,1.05-0.89,1.07-1.5
	c4.55-2.9,3.43-10.41-2.71-12.71c-4.46-1.69-9.1,0.6-11.64,4.6c-2.81-7.95-12.25-13.23-19.16-6.92c-5.32,4.76-3.69,12.87,2.04,14.4
	c0.15,0.51,0.53,0.95,1.21,1.13c2.23,0.61,3.13-2.81,0.91-3.42c-1.5-0.41-2.39,1-2.14,2.16c-5.27-1.89-6.28-9.39-1.28-13.41
	c7.76-6.41,16.18,1.25,16.86,9.68c-0.33,1.3-0.44,2.68-0.31,4.09c-1.13,4.61-5.04,8.8-13.16,10.32
	c-9.37,1.77-21.17-6.84-22.37-18.64c5.09-5.07,10.55-9.83,16.16-14.46c13.17-10.84,13.61-6.73,0.84-19.3
	c-5.17-5.1-10.2-10.34-14.84-15.85c2.21-11.64,14.69-19.18,23.89-16.57c7.96,2.24,11.49,6.77,12.2,11.47
	c-0.25,1.38-0.25,2.75-0.04,4.07c-1.4,8.35-10.44,15.24-17.63,8.15c-4.63-4.46-2.97-11.83,2.44-13.25
	c-0.35,1.13,0.42,2.61,1.95,2.34c2.27-0.41,1.67-3.89-0.61-3.49c-0.68,0.12-1.1,0.53-1.3,1.02c-5.85,1.01-8.17,8.95-3.28,14.16
	c6.3,6.87,16.18,2.47,19.68-5.17c2.18,4.21,6.61,6.9,11.2,5.62c6.33-1.75,8.07-9.13,3.81-12.42c0.03-0.6-0.23-1.21-0.93-1.59
	c-2.04-1.08-3.66,2.05-1.62,3.14c1.28,0.68,2.39-0.29,2.54-1.38c4.67,4.47-0.69,12.87-7.79,10.66c-3.34-1.14-5.58-4.03-6.15-7.38
	c0.24-1.3,0.29-2.65,0.12-4.02c0.56-2.46,2.04-4.91,4.64-6.9c-1-3.17-0.85-6.01,0.06-8.31c0.94-1.04,1.68-2.2,2.23-3.43
	c2.4-2.4,5.9-3.42,9.2-2.43c7.07,2.34,6.7,12.33,0.35,13.27c0.49-0.98,0.13-2.42-1.3-2.61c-2.29-0.3-2.73,3.21-0.45,3.51
	c0.78,0.1,1.35-0.24,1.66-0.75c5.37-0.2,8.09-7.28,3.91-12.39c-3.03-3.73-8.18-4.1-12.34-1.92c1.48-8.31-4.1-17.68-13.18-15.73
	c-6.95,1.42-9.53,9.27-5.32,13.51c-0.12,0.52-0.01,1.09,0.49,1.59c1.63,1.66,4.09-0.84,2.47-2.5c-1.1-1.12-2.57-0.35-2.92,0.78
	c-3.63-4.31-0.82-11.32,5.49-12.27c9.88-1.61,13.4,9.3,9.84,16.95c-0.92,0.96-1.7,2.09-2.28,3.38c-3.25,3.42-8.69,5.06-16.47,2.25
	c-8.99-3.22-14.97-16.68-10.2-27.5c6.9-1.8,13.97-3.15,21.11-4.32c16.74-2.7,15.1,1.09,10.23-16.29
	c-1.96-7.04-3.75-14.13-5.05-21.26c7.64-8.96,22.16-9.15,28.85-2.21c5.79,5.98,6.61,11.7,4.92,16.14c-0.89,1.07-1.57,2.26-2.04,3.5
	c-5.32,6.52-16.55,7.9-19.28-1.89c-1.82-6.22,3.25-11.76,8.63-10.23c-0.86,0.8-0.92,2.48,0.53,3.02c2.16,0.8,3.36-2.52,1.19-3.33
	c-0.65-0.24-1.22-0.1-1.63,0.22c-5.56-2.1-11.48,3.6-9.82,10.6c2.08,9.15,12.79,10.36,19.59,5.51c-0.18,4.75,2.32,9.34,6.93,10.55
	c6.34,1.7,11.48-3.8,9.41-8.82c0.32-0.51,0.4-1.17-0.03-1.85c-1.23-1.97-4.18-0.08-2.94,1.9c0.77,1.24,2.21,0.96,2.88,0.09
	c1.84,6.24-6.93,10.79-12,5.27c-2.34-2.69-2.84-6.34-1.67-9.54c0.82-0.98,1.51-2.1,2.03-3.34c1.7-1.87,4.18-3.26,7.43-3.67
	c0.69-3.27,2.25-5.64,4.18-7.18c1.3-0.42,2.49-1.04,3.56-1.81c3.26-0.87,6.81,0.01,9.19,2.55c4.98,5.62-0.27,14.09-6.22,11.67
	c0.91-0.6,1.3-2.03,0.16-2.92c-1.83-1.42-3.95,1.39-2.12,2.81c0.63,0.49,1.29,0.47,1.81,0.19c4.75,2.55,10.59-2.19,9.48-8.74
	c-0.79-4.77-5.07-7.71-9.74-7.94c5.37-6.44,5.15-17.39-3.67-20.31c-6.72-2.3-12.82,3.19-11.26,9c-0.36,0.39-0.54,0.94-0.36,1.63
	c0.59,2.26,3.96,1.35,3.37-0.91c-0.4-1.52-2.05-1.6-2.91-0.81c-1.02-5.58,4.86-10.22,10.79-7.83c9.35,3.62,7.02,14.86,0.18,19.68
	c-1.27,0.36-2.5,0.95-3.64,1.77c-4.49,1.31-10.02-0.03-15.37-6.42c-6.2-7.36-4.75-22.05,4.71-28.99c6.86,1.94,13.65,4.36,20.41,6.98
	c15.83,6.16,12.54,8.61,16.87-8.91c1.77-7.1,3.71-14.14,6.09-20.98c11.03-3.88,23.7,3.33,26.07,12.74
	c2.07,8.12-0.03,13.49-3.68,16.47c-1.3,0.47-2.48,1.16-3.49,2c-7.82,2.95-18.22-1.57-15.76-11.43c1.49-6.31,8.6-8.53,12.51-4.48
	c-1.14,0.26-2.02,1.68-1.02,2.88c1.48,1.79,4.15-0.48,2.67-2.28c-0.45-0.54-1-0.71-1.52-0.63c-3.79-4.64-11.72-2.71-13.72,4.19
	c-2.7,8.98,5.98,15.46,14.25,14.72c-2.5,4.02-2.58,9.26,0.81,12.66c4.66,4.7,11.82,2.54,12.49-2.86c0.53-0.27,0.92-0.81,0.89-1.62
	c-0.1-2.34-3.58-2.19-3.48,0.15c0.06,1.46,1.44,1.95,2.45,1.54c-1.48,6.34-11.32,5.83-12.98-1.53c-0.7-3.51,0.64-6.92,3.21-9.1
	c1.23-0.44,2.4-1.07,3.49-1.91c2.38-0.74,5.2-0.66,8.2,0.63c2.2-2.47,4.7-3.75,7.12-4.11c1.36,0.31,2.71,0.38,4.04,0.25
	c3.25,0.91,5.86,3.48,6.67,6.88c1.54,7.39-7.16,12.06-11.14,6.95c1.08-0.06,2.13-1.1,1.58-2.45c-0.89-2.16-4.1-0.8-3.22,1.36
	c0.3,0.74,0.88,1.06,1.47,1.08c2.86,4.63,10.25,3.48,12.52-2.76c1.67-4.53-0.6-9.25-4.53-11.82c7.82-2.85,13.02-12.44,6.82-19.46
	c-4.69-5.41-12.67-3.75-14.18,2.08c-0.5,0.15-0.93,0.54-1.11,1.22c-0.6,2.26,2.77,3.18,3.36,0.92c0.4-1.52-0.99-2.43-2.12-2.18
	c1.86-5.35,9.24-6.38,13.2-1.3c6.31,7.88-1.23,16.44-9.53,17.13c-1.28-0.33-2.64-0.45-4.02-0.32c-4.54-1.15-8.66-5.12-10.16-13.37
	c-1.75-9.52,6.75-21.5,18.36-22.7c4.98,5.16,9.67,10.7,14.23,16.4c0,0,0.01,0.01,0.01,0.01c0,0,0.01-0.01,0.01-0.01
	c4.56-5.69,9.24-11.23,14.23-16.4c11.62,1.2,20.11,13.18,18.36,22.7c-1.49,8.25-5.62,12.22-10.16,13.37
	c-1.39-0.13-2.75-0.01-4.02,0.32c-8.3-0.69-15.85-9.25-9.53-17.13c3.96-5.08,11.34-4.05,13.2,1.3c-1.14-0.25-2.53,0.65-2.12,2.18
	c0.6,2.26,3.96,1.34,3.36-0.92c-0.18-0.68-0.61-1.07-1.11-1.22c-1.51-5.82-9.49-7.48-14.18-2.08c-6.21,7.01-1.01,16.6,6.82,19.46
	c-3.94,2.57-6.2,7.29-4.53,11.82c2.26,6.24,9.66,7.38,12.52,2.76c0.59-0.02,1.17-0.34,1.47-1.08c0.88-2.16-2.33-3.52-3.22-1.36
	c-0.55,1.35,0.5,2.39,1.58,2.45c-3.97,5.12-12.68,0.44-11.14-6.95c0.81-3.4,3.42-5.97,6.67-6.88c1.32,0.13,2.68,0.06,4.04-0.25
	c2.42,0.36,4.92,1.64,7.12,4.11c3-1.29,5.83-1.36,8.2-0.63c1.09,0.84,2.26,1.47,3.49,1.91c2.57,2.18,3.91,5.59,3.21,9.1
	c-1.67,7.36-11.51,7.87-12.98,1.53c1.01,0.41,2.39-0.08,2.45-1.54c0.1-2.34-3.39-2.48-3.48-0.15c-0.03,0.8,0.36,1.34,0.89,1.62
	c0.68,5.4,7.84,7.56,12.49,2.86c3.39-3.39,3.31-8.64,0.81-12.66c8.27,0.74,16.95-5.75,14.25-14.72c-2-6.9-9.93-8.83-13.72-4.19
	c-0.52-0.07-1.07,0.09-1.52,0.63c-1.48,1.79,1.19,4.07,2.67,2.28c1-1.21,0.11-2.63-1.02-2.88c3.91-4.05,11.03-1.83,12.51,4.48
	c2.45,9.86-7.95,14.38-15.76,11.43c-1.01-0.84-2.19-1.52-3.49-2c-3.65-2.98-5.75-8.35-3.68-16.47c2.38-9.41,15.04-16.62,26.07-12.74
	c2.38,6.84,4.33,13.88,6.09,20.98c4.33,17.52,1.05,15.07,16.87,8.91c6.76-2.62,13.55-5.04,20.41-6.98
	c9.46,6.95,10.91,21.64,4.71,28.99c-5.35,6.38-10.88,7.73-15.37,6.42c-1.14-0.82-2.37-1.41-3.64-1.77
	c-6.85-4.81-9.17-16.06,0.18-19.68c5.93-2.38,11.82,2.25,10.79,7.83c-0.86-0.8-2.51-0.72-2.91,0.81c-0.59,2.26,2.77,3.18,3.37,0.91
	c0.18-0.68-0.01-1.24-0.36-1.63c1.56-5.81-4.53-11.3-11.26-9c-8.83,2.92-9.04,13.87-3.67,20.31c-4.68,0.23-8.96,3.16-9.74,7.94
	c-1.11,6.55,4.73,11.3,9.48,8.74c0.52,0.28,1.18,0.3,1.81-0.19c1.83-1.42-0.29-4.23-2.12-2.81c-1.14,0.89-0.75,2.32,0.16,2.92
	c-5.96,2.41-11.2-6.06-6.22-11.67c2.38-2.54,5.92-3.43,9.19-2.55c1.07,0.77,2.25,1.38,3.56,1.81c1.93,1.54,3.48,3.91,4.18,7.18
	c3.26,0.41,5.74,1.81,7.43,3.67c0.52,1.24,1.21,2.36,2.03,3.34c1.17,3.2,0.67,6.85-1.67,9.54c-5.06,5.52-13.84,0.97-12-5.27
	c0.67,0.86,2.11,1.14,2.88-0.09c1.24-1.98-1.71-3.87-2.94-1.9c-0.42,0.68-0.35,1.34-0.03,1.85c-2.07,5.02,3.07,10.53,9.41,8.82
	c4.61-1.21,7.12-5.8,6.93-10.55c6.8,4.84,17.51,3.63,19.59-5.51c1.66-6.99-4.25-12.69-9.82-10.6c-0.41-0.33-0.97-0.47-1.63-0.22
	c-2.17,0.8-0.97,4.13,1.19,3.33c1.46-0.54,1.39-2.22,0.53-3.02c5.38-1.52,10.45,4.02,8.63,10.23c-2.73,9.79-13.96,8.41-19.28,1.89
	c-0.46-1.24-1.14-2.43-2.04-3.5c-1.69-4.44-0.87-10.15,4.92-16.14c6.69-6.94,21.21-6.75,28.85,2.21c-1.3,7.13-3.09,14.22-5.05,21.26
	c-4.88,17.38-6.51,13.58,10.23,16.29c7.14,1.17,14.21,2.52,21.11,4.32c4.77,10.82-1.2,24.28-10.2,27.5
	c-7.78,2.81-13.23,1.17-16.47-2.25c-0.58-1.29-1.36-2.42-2.28-3.38c-3.56-7.65-0.04-18.56,9.84-16.95
	c6.31,0.95,9.13,7.95,5.49,12.27c-0.35-1.13-1.82-1.9-2.92-0.78c-1.63,1.66,0.84,4.16,2.47,2.5c0.49-0.5,0.61-1.08,0.49-1.59
	c4.21-4.24,1.64-12.09-5.32-13.51c-9.08-1.95-14.66,7.42-13.18,15.73c-4.16-2.18-9.32-1.81-12.34,1.92
	c-4.18,5.11-1.46,12.19,3.91,12.39c0.32,0.51,0.88,0.86,1.66,0.75c2.28-0.3,1.84-3.81-0.45-3.51c-1.43,0.19-1.79,1.63-1.3,2.61
	c-6.35-0.94-6.72-10.93,0.35-13.27c3.3-0.99,6.8,0.03,9.2,2.43c0.55,1.23,1.29,2.39,2.23,3.43c0.9,2.31,1.06,5.14,0.06,8.31
	c2.6,2,4.08,4.44,4.64,6.9c-0.17,1.37-0.12,2.72,0.12,4.02c-0.57,3.35-2.81,6.24-6.15,7.38c-7.1,2.21-12.46-6.19-7.79-10.66
	c0.15,1.09,1.26,2.06,2.54,1.38c2.04-1.09,0.42-4.22-1.62-3.14c-0.7,0.37-0.96,0.99-0.93,1.59c-4.27,3.29-2.53,10.67,3.81,12.42
	c4.59,1.29,9.02-1.41,11.2-5.62c3.5,7.65,13.38,12.04,19.68,5.17c4.88-5.21,2.57-13.15-3.28-14.16c-0.19-0.49-0.61-0.9-1.3-1.02
	c-2.27-0.41-2.87,3.08-0.61,3.49c1.53,0.27,2.3-1.21,1.95-2.34c5.41,1.41,7.07,8.79,2.44,13.25c-7.18,7.09-16.23,0.2-17.63-8.15
	c0.21-1.31,0.2-2.68-0.04-4.07c0.72-4.7,4.24-9.24,12.2-11.47c9.21-2.61,21.69,4.93,23.89,16.57c-4.64,5.52-9.67,10.75-14.84,15.85
	c-12.78,12.57-12.33,8.46,0.84,19.3c5.61,4.64,11.07,9.4,16.16,14.46c-1.2,11.79-12.99,20.41-22.37,18.64
	C452.18,334.05,448.27,329.87,447.15,325.26z M451.8,334.77c-3.08,0.53-5.54,1.57-7.47,2.95c0.06-1.48-0.12-3.08-0.6-4.76
	c1.14-1.32,1.96-2.69,2.52-4.07C447.44,330.97,449.23,332.97,451.8,334.77z M471.11,367.09c-3.15,5.86-9.73,10.91-21.13,13.24
	c4.68,10.83,4.38,19.2,1.47,25.18c-2.68-8.49-6.13-18.37-10.21-29.8C452.78,372.54,462.73,369.73,471.11,367.09z M414.31,408
	c-2.93-1.11-5.57-1.45-7.92-1.24c0.78-1.26,1.41-2.73,1.82-4.43c1.64-0.57,3.02-1.34,4.19-2.24
	C412.4,402.49,412.97,405.14,414.31,408z M415.13,445.79c-5.61,3.47-13.79,4.51-24.82,0.73c-1.28,11.75-5.66,18.85-11.12,22.55
	c1.85-8.71,3.73-19.02,5.83-30.99C396.57,441.21,406.57,443.82,415.13,445.79z M345.8,452.38c-1.99-2.45-4.11-4.08-6.25-5.1
	c1.3-0.69,2.56-1.64,3.76-2.91c1.7,0.34,3.28,0.38,4.73,0.18C346.86,446.64,346.04,449.22,345.8,452.38z M327.9,485.52
	c-6.57,0.16-14.17-3.1-21.85-11.97c-1.79,2.47-3.6,4.54-5.42,6.3c-1.82-1.75-3.64-3.82-5.42-6.3c-7.68,8.87-15.28,12.13-21.85,11.97
	c6.44-6.05,13.81-13.39,22.29-21.97c1.71,2.07,3.37,4.07,4.99,6c1.62-1.94,3.28-3.94,4.99-6
	C314.09,472.13,321.46,479.47,327.9,485.52z M253.21,444.56c1.45,0.19,3.03,0.15,4.73-0.18c1.2,1.26,2.46,2.22,3.76,2.91
	c-2.14,1.01-4.26,2.65-6.25,5.1C255.21,449.22,254.39,446.64,253.21,444.56z M222.07,469.08c-5.47-3.7-9.85-10.8-11.12-22.55
	c-11.02,3.78-19.21,2.74-24.82-0.73c8.56-1.97,18.55-4.59,30.11-7.71C218.33,450.05,220.21,460.36,222.07,469.08z M186.94,408
	c1.34-2.86,1.91-5.51,1.91-7.91c1.16,0.9,2.55,1.67,4.19,2.24c0.41,1.7,1.04,3.17,1.82,4.43C192.51,406.55,189.87,406.89,186.94,408
	z M149.81,405.5c-2.91-5.98-3.21-14.35,1.47-25.18c-11.4-2.33-17.98-7.38-21.13-13.24c8.38,2.64,18.33,5.45,29.87,8.62
	C155.94,387.13,152.49,397.01,149.81,405.5z M149.45,334.77c2.57-1.8,4.37-3.8,5.55-5.88c0.56,1.37,1.39,2.74,2.52,4.07
	c-0.48,1.68-0.66,3.28-0.6,4.76C154.99,336.35,152.53,335.3,149.45,334.77z M120.4,270.49c5.96,6.55,13.19,14.03,21.63,22.64
	c-9.16,7.82-17,14.63-23.51,20.62c0.42-6.66,4.28-14.06,13.66-21.06C123.46,284.88,120.25,277.16,120.4,270.49z M160.91,254.84
	c-1.24,1.22-2.18,2.5-2.86,3.82c-1-2.17-2.61-4.33-5.02-6.35c3.12-0.25,5.65-1.08,7.7-2.28
	C160.54,251.51,160.58,253.12,160.91,254.84z M159.52,181.89c1.94,8.69,4.51,18.85,7.59,30.59c-11.78,2.12-21.93,4.03-30.51,5.92
	c3.64-5.55,10.63-10,22.2-11.3C155.08,195.91,156.1,187.59,159.52,181.89z M196.72,182.72c2.82,1.37,5.43,1.94,7.79,1.94
	c-0.89,1.18-1.65,2.59-2.21,4.25c-1.68,0.42-3.12,1.06-4.36,1.85C198.15,188.38,197.81,185.69,196.72,182.72z M199.18,145
	c5.89-2.96,14.13-3.26,24.79,1.49c2.29-11.59,7.27-18.27,13.04-21.47c-2.6,8.52-5.37,18.61-8.49,30.34
	C217.27,151.23,207.54,147.73,199.18,145z M268.82,144.64c1.77,2.62,3.74,4.43,5.79,5.63c-1.35,0.57-2.7,1.41-4.01,2.56
	c-1.66-0.49-3.23-0.67-4.69-0.61C267.27,150.26,268.3,147.77,268.82,144.64z M289.53,113.25c3.55,0.23,7.3,1.48,11.1,4.1
	c3.8-2.61,7.55-3.86,11.1-4.1c-3.42,3.83-7.1,8.11-11.1,12.85C296.63,121.35,292.94,117.08,289.53,113.25z M335.34,152.23
	c-1.46-0.06-3.03,0.12-4.69,0.61c-1.3-1.15-2.65-1.99-4.01-2.56c2.05-1.2,4.02-3.02,5.79-5.63
	C332.95,147.77,333.99,150.26,335.34,152.23z M364.25,125.03c5.77,3.2,10.75,9.88,13.04,21.47c10.66-4.75,18.9-4.45,24.79-1.49
	c-8.36,2.73-18.09,6.23-29.33,10.37C369.62,143.64,366.85,133.54,364.25,125.03z M403.31,190.77c-1.24-0.79-2.68-1.43-4.36-1.85
	c-0.56-1.66-1.32-3.07-2.21-4.25c2.36,0,4.97-0.57,7.79-1.94C403.44,185.69,403.1,188.38,403.31,190.77z M464.66,218.4
	c-8.58-1.88-18.73-3.79-30.51-5.92c3.07-11.74,5.65-21.89,7.59-30.59c3.42,5.7,4.44,14.01,0.72,25.21
	C454.03,208.4,461.02,212.85,464.66,218.4z M440.52,250.04c2.05,1.2,4.58,2.03,7.7,2.28c-2.41,2.02-4.02,4.17-5.02,6.35
	c-0.68-1.32-1.62-2.6-2.86-3.82C440.67,253.12,440.71,251.51,440.52,250.04z M459.22,293.13c8.44-8.61,15.67-16.09,21.63-22.64
	c0.16,6.67-3.05,14.39-11.78,22.2c9.38,7,13.24,14.4,13.66,21.06C476.23,307.76,468.38,300.95,459.22,293.13z M499.49,235.87
	c-0.21,0.58-0.45,1.15-0.67,1.73c-0.12-0.97-0.41-1.88-0.86-2.75C498.47,235.19,498.99,235.51,499.49,235.87z M494.77,232.81
	c0.94,1.19,1.81,2.49,2.37,3.81c0.28,1.41,0.3,3.02,0.18,4.58c-3.77,8.51-8.79,16.19-14.53,23.36c-2.83-9.27-11.4-15.98-19.54-17.06
	c5.95-5.53,9.27-16.07,6.37-25.36C478.4,224.66,486.86,228.03,494.77,232.81z M445.61,158.45c3.15,8.04,10.79,15.96,25.4,20.92
	c18.51,6.18,3.61,4.52,8.69,29.81c0.96,5.83,3.52,11.33,7.43,15.5c-4.88-1.91-11.07-3.67-18.62-5.42
	c-3.22-6.8-10.24-12.5-22.65-14.37c3.54-12.12,1.42-21.01-3.28-26.87C444.21,170.27,445.26,163.78,445.61,158.45z M440.84,142.44
	c0.1,0.61,0.18,1.23,0.27,1.84c-0.59-0.78-1.28-1.42-2.1-1.95C439.62,142.37,440.22,142.39,440.84,142.44z M435.24,142.19
	c1.4,0.55,2.79,1.24,3.93,2.09c0.94,1.07,1.74,2.46,2.41,3.87c0.92,9.29,0.36,18.49-1.09,27.61c-7.01-6.59-17.74-8.06-25.32-4.86
	c2.43-7.81,0.12-18.62-6.97-25.19C417.06,143.44,426.04,142.07,435.24,142.19z M388.36,107.98c13.55-2.88,8-6.06,13.6,7.18
	c5.98,13.96,14.42,21.24,22.67,23.87c-5.17,0.83-11.39,2.45-18.79,4.76c-6.13-4.25-15.02-5.63-26.69-0.94
	c-2.91-12.29-9.11-18.91-16.07-21.6c-2.4-7.54-4.68-13.7-7-18.49C362.75,108.13,373.27,111.11,388.36,107.98z M344.05,91.32
	c0.51,0.63,1,1.27,1.49,1.92c-1.19-0.49-2.41-0.75-3.59-0.85C342.65,92.03,343.34,91.66,344.05,91.32z M339.26,93.85
	c2.72-0.39,5.37-0.03,7.89,1.55c5.55,7.71,9.7,16.14,13.01,24.97c-9.32-2.15-19.33,2.03-24.32,8.65c-1.75-8-9.07-16.19-18.45-18.27
	C323.99,104.23,331.15,98.43,339.26,93.85z M300.63,89.99c10.6,6.86,20.16,8.31,27.74,6.59c-4.08,3.35-8.69,7.93-13.98,13.72
	c-4.36-0.33-9.05,0.69-13.76,3.61c-4.71-2.93-9.4-3.94-13.76-3.61c-5.29-5.79-9.9-10.37-13.98-13.72
	C280.47,98.3,290.02,96.85,300.63,89.99z M257.2,91.32c0.71,0.34,1.4,0.71,2.1,1.07c-1.18,0.09-2.4,0.35-3.59,0.85
	C256.2,92.59,256.69,91.95,257.2,91.32z M254.1,95.39c2.52-1.58,5.17-1.94,7.89-1.55c8.11,4.58,15.27,10.38,21.87,16.9
	c-9.37,2.08-16.7,10.27-18.45,18.27c-4.99-6.62-15-10.8-24.32-8.65C244.4,111.54,248.55,103.11,254.1,95.39z M199.29,115.16
	c5.6-13.24,0.05-10.06,13.6-7.18c15.09,3.12,25.6,0.15,32.29-5.22c-2.32,4.79-4.6,10.94-7,18.49c-6.96,2.69-13.16,9.31-16.07,21.6
	c-11.67-4.68-20.56-3.31-26.69,0.94c-7.4-2.31-13.62-3.94-18.79-4.76C184.88,136.4,193.31,129.12,199.29,115.16z M160.42,142.44
	c0.61-0.05,1.22-0.07,1.83-0.11c-0.82,0.52-1.51,1.17-2.1,1.95C160.24,143.67,160.31,143.05,160.42,142.44z M159.67,148.16
	c0.67-1.41,1.47-2.8,2.41-3.87c1.14-0.86,2.53-1.54,3.93-2.09c9.2-0.13,18.18,1.25,27.04,3.52c-7.08,6.57-9.39,17.38-6.97,25.19
	c-7.58-3.2-18.3-1.73-25.32,4.86C159.32,166.65,158.75,157.45,159.67,148.16z M121.55,209.19c5.08-25.29-9.82-23.63,8.69-29.81
	c14.61-4.96,22.25-12.88,25.4-20.92c0.35,5.33,1.4,11.82,3.04,19.57c-4.7,5.86-6.82,14.75-3.28,26.87
	c-12.41,1.87-19.43,7.58-22.65,14.37c-7.55,1.75-13.74,3.51-18.62,5.42C118.03,220.51,120.59,215.01,121.55,209.19z M104.11,236.62
	c0.56-1.32,1.43-2.62,2.37-3.81c7.91-4.78,16.36-8.15,25.15-10.68c-2.9,9.29,0.42,19.82,6.37,25.36
	c-8.14,1.08-16.71,7.79-19.54,17.06c-5.74-7.16-10.76-14.84-14.53-23.36C103.82,239.64,103.83,238.03,104.11,236.62z M102.44,237.6
	c-0.22-0.58-0.46-1.15-0.67-1.73c0.51-0.35,1.02-0.68,1.53-1.02C102.84,235.71,102.56,236.63,102.44,237.6z M93.14,298.73
	c-8.49-11.55-8.55-5.07,0.68-15.55c10.2-11.7,12.93-22.44,11.71-31c2.92,4.43,7.03,9.51,12.25,15.39
	c-1.19,7.47,1.36,16.24,10.39,24.94c-9.83,7.93-13.1,16.43-12.54,23.95c-5.67,5.35-10.17,10.01-13.46,14.15
	C104.04,322.03,102.05,310.97,93.14,298.73z M96.96,346.57c0.34-0.72,0.7-1.42,1.05-2.13c0.09,1.2,0.35,2.44,0.83,3.65
	C98.21,347.59,97.58,347.09,96.96,346.57z M100.97,349.72c-1.55-2.56-1.91-5.25-1.52-8.02c4.51-8.23,10.21-15.5,16.62-22.19
	c2.06,9.51,10.13,16.95,18,18.72c-6.52,5.07-10.63,15.24-8.51,24.7C116.86,359.57,108.56,355.36,100.97,349.72z M143.93,428.41
	c-2.6-8.38-9.76-16.95-23.5-23.02c-13.04-5.69-9.9-0.05-7.07-13.81c3.08-15.33,0.15-26.01-5.14-32.8c4.72,2.36,10.78,4.68,18.2,7.11
	c2.65,7.07,9.17,13.37,21.27,16.33c-4.61,11.85-3.26,20.88,0.93,27.11C146.35,416.84,144.75,423.17,143.93,428.41z M147.28,444.88
	c-0.05-0.62-0.07-1.24-0.11-1.86c0.52,0.83,1.15,1.53,1.92,2.13C148.49,445.06,147.89,444.98,147.28,444.88z M152.92,445.63
	c-1.39-0.68-2.76-1.49-3.81-2.45c-0.84-1.16-1.52-2.57-2.06-3.99c-0.12-9.35,1.23-18.47,3.47-27.46c6.47,7.19,17.11,9.54,24.8,7.08
	c-3.15,7.7-1.7,18.59,4.78,25.72C171.12,446,162.06,446.57,152.92,445.63z M213,484.35c-24.9-5.16-23.27,9.97-29.35-8.83
	c-4.88-14.84-12.68-22.6-20.6-25.8c5.25-0.36,11.63-1.42,19.27-3.08c5.77,4.78,14.52,6.93,26.46,3.34
	c1.84,12.61,7.46,19.74,14.15,23.01c1.73,7.66,3.45,13.95,5.33,18.91C224.15,487.93,218.73,485.33,213,484.35z M239.26,504.46
	c-0.35-0.51-0.67-1.04-1.01-1.55c0.86,0.46,1.75,0.74,2.71,0.87C240.4,504,239.84,504.24,239.26,504.46z M240.01,502.07
	c-1.3-0.57-2.58-1.45-3.75-2.41c-4.71-8.03-8.03-16.62-10.51-25.54c9.14,2.94,19.52-0.43,24.96-6.47
	c1.06,8.27,7.67,16.97,16.8,19.84c-7.05,5.83-14.61,10.93-22.99,14.76C242.98,502.37,241.39,502.36,240.01,502.07z M300.63,518.44
	c-1.15,0.4-2.33,0.92-3.55,1.57c1.2-1.04,2.38-2.01,3.55-2.92c1.17,0.91,2.35,1.88,3.55,2.92
	C302.96,519.37,301.77,518.85,300.63,518.44z M315.41,512.53c-10.15,9.21-4.19,9.29-14.79,1.1c-10.59,8.19-4.64,8.11-14.79-1.1
	c-11.52-10.36-22.09-13.14-30.52-11.89c4.36-2.97,9.36-7.14,15.15-12.44c7.35,1.21,15.99-1.38,24.56-10.55
	c1.84,2.36,3.72,4.33,5.6,5.99c1.89-1.65,3.76-3.63,5.6-5.99c8.57,9.17,17.21,11.76,24.56,10.55c5.78,5.31,10.79,9.47,15.15,12.44
	C337.5,499.39,326.94,502.17,315.41,512.53z M361.99,504.46c-0.58-0.22-1.14-0.46-1.7-0.69c0.96-0.13,1.85-0.41,2.71-0.87
	C362.66,503.42,362.34,503.94,361.99,504.46z M365,499.66c-1.17,0.96-2.45,1.84-3.75,2.41c-1.39,0.29-2.97,0.3-4.51,0.18
	c-8.38-3.83-15.94-8.93-22.99-14.76c9.13-2.87,15.73-11.58,16.8-19.84c5.45,6.04,15.82,9.41,24.96,6.47
	C373.02,483.04,369.7,491.63,365,499.66z M417.61,475.53c-6.08,18.8-4.45,3.67-29.35,8.83c-5.74,0.98-11.15,3.58-15.26,7.55
	c1.88-4.96,3.61-11.25,5.33-18.91c6.69-3.27,12.31-10.4,14.15-23.01c11.94,3.59,20.68,1.44,26.46-3.34
	c7.63,1.66,14.02,2.73,19.27,3.08C430.28,452.92,422.49,460.69,417.61,475.53z M453.97,444.88c-0.6,0.1-1.21,0.18-1.81,0.27
	c0.77-0.59,1.4-1.3,1.92-2.13C454.04,443.64,454.02,444.26,453.97,444.88z M452.15,443.19c-1.06,0.95-2.42,1.77-3.81,2.45
	c-9.15,0.94-18.2,0.36-27.18-1.11c6.49-7.12,7.93-18.02,4.78-25.72c7.69,2.46,18.34,0.12,24.8-7.08c2.24,8.99,3.59,18.12,3.47,27.46
	C453.67,440.62,452.99,442.03,452.15,443.19z M487.89,391.58c2.83,13.77,5.97,8.12-7.07,13.81c-13.74,6.08-20.91,14.65-23.5,23.02
	c-0.81-5.25-2.41-11.57-4.69-19.09c4.19-6.23,5.54-15.26,0.93-27.11c12.1-2.95,18.62-9.26,21.27-16.33
	c7.43-2.44,13.49-4.76,18.2-7.11C487.75,365.57,484.82,376.25,487.89,391.58z M500.28,349.72c-7.59,5.64-15.89,9.85-24.58,13.21
	c2.11-9.47-2-19.63-8.51-24.7c7.87-1.77,15.94-9.21,18-18.72c6.41,6.7,12.11,13.97,16.62,22.19
	C502.2,344.47,501.84,347.16,500.28,349.72z M502.41,348.09c0.49-1.21,0.74-2.45,0.83-3.65c0.35,0.71,0.72,1.41,1.05,2.13
	C503.68,347.09,503.04,347.59,502.41,348.09z M436.27,428.42c0.68,5.97,8.52,9.2,7.19,5.22
	C442.46,430.75,439.67,428.51,436.27,428.42z M439.33,431.26c1.02,0.51,1.9,1.33,2.51,2.34
	C440.8,433.07,439.92,432.25,439.33,431.26z M354.76,481.21c-2.36,5.52,2.85,12.29,3.66,8.18
	C358.98,486.38,357.66,483.02,354.76,481.21z M357.04,488.53c-0.65-0.99-1-2.15-1.03-3.3C356.64,486.19,357.01,487.35,357.04,488.53
	z M339.72,106.18c-1.97,2.32-2.48,5.9-0.85,8.94C343.62,111.54,342.45,103.03,339.72,106.18z M340.5,107.63
	c0.07,1.18-0.19,2.37-0.74,3.38C339.69,109.85,339.94,108.67,340.5,107.63z M429.77,153.11c-2.85,1.01-5.05,3.86-5.14,7.31
	C430.51,159.73,433.69,151.77,429.77,153.11z M427.43,157.31c0.5-1.03,1.31-1.93,2.3-2.55C429.21,155.82,428.4,156.71,427.43,157.31
	z M484.65,239.49c-2.97-0.57-6.27,0.77-8.05,3.72C482.04,245.6,488.71,240.32,484.65,239.49z M483.81,240.9
	c-0.97,0.66-2.12,1.01-3.25,1.04C481.51,241.3,482.65,240.93,483.81,240.9z M489.67,342.17c-2.29-2-5.81-2.52-8.8-0.87
	C484.39,346.13,492.77,344.94,489.67,342.17z M484.92,342.21c1.13-0.07,2.3,0.18,3.33,0.75
	C487.08,343.03,485.91,342.76,484.92,342.21z M449.84,290.69c-20.1,8.97-42.35-10.66-33.71-28.08
	c-16.8-9.15-10.05-38.22,11.72-42.65c-4.09,0.54-6.84,1.39-8.53,2.12c1.37-1.24,3.29-3.41,5.5-6.95c-13,17.98-41.93,12.28-43.02-7.2
	c-19.05,0.61-27.51-28-10.84-42.89c-3.28,2.55-5.24,4.68-6.34,6.17c0.57-1.77,1.17-4.63,1.34-8.81
	c-2.4,22.17-30.27,31.93-40.79,15.61c-8.34,5.25-18.04,2.37-24.54-4.57c-6.5,6.94-16.2,9.82-24.54,4.57
	c-10.53,16.31-38.39,6.56-40.79-15.61c0.17,4.18,0.76,7.04,1.34,8.81c-1.1-1.49-3.06-3.62-6.34-6.17
	c16.67,14.89,8.21,43.5-10.84,42.89c-1.09,19.47-30.02,25.17-43.02,7.2c2.21,3.54,4.13,5.71,5.5,6.95
	c-1.69-0.73-4.44-1.58-8.53-2.12c21.77,4.43,28.52,33.5,11.72,42.65c8.64,17.42-13.61,37.05-33.71,28.08
	c3.68,1.96,6.41,2.85,8.2,3.23c-1.82,0.22-4.62,0.87-8.45,2.49c21.03-7.22,41.19,14.53,31.15,30.98
	c16.06,10.69,6.45,38.99-15.37,41.44c4.12-0.17,6.93-0.78,8.67-1.36c-1.47,1.12-3.57,3.11-6.07,6.44
	c14.66-16.93,42.83-8.34,42.22,11.02c19.17,1.1,24.78,30.49,7.08,43.69c3.48-2.24,5.62-4.19,6.84-5.58
	c-0.72,1.72-1.56,4.51-2.09,8.66c4.37-22.11,32.98-28.97,41.99-11.91c17.15-8.78,36.47,13.82,27.64,34.24
	c1.93-3.73,2.81-6.51,3.18-8.33c0.21,1.85,0.86,4.69,2.45,8.59c-2.53-7.62-1.43-15.13,1.77-21.17c3.19,6.04,4.3,13.55,1.77,21.17
	c1.6-3.89,2.24-6.73,2.45-8.59c0.37,1.83,1.25,4.6,3.18,8.33c-8.83-20.42,10.5-43.02,27.64-34.24c9.01-17.07,37.62-10.2,41.99,11.91
	c-0.53-4.15-1.37-6.94-2.09-8.66c1.23,1.39,3.36,3.34,6.84,5.58c-17.7-13.2-12.09-42.59,7.08-43.69
	c-0.6-19.35,27.56-27.95,42.22-11.02c-2.51-3.33-4.6-5.32-6.07-6.44c1.75,0.58,4.55,1.19,8.67,1.36
	c-21.83-2.44-31.43-30.74-15.37-41.44c-10.05-16.46,10.11-38.2,31.15-30.98c-3.83-1.62-6.63-2.27-8.45-2.49
	C443.43,293.54,446.16,292.64,449.84,290.69z M412.61,263.74c-2.68,7.85-0.24,15.82,5.12,21.64
	c-11.75-10.02-17.14-27.43-13.13-42.47C403.45,250.83,405.93,258.84,412.61,263.74z M379.31,210.7c1.56,8.23,7.68,13.9,15.27,16.18
	c-15.2-2.64-28.53-15.04-32.48-30.18C365.02,204.16,371.1,209.85,379.31,210.7z M324.37,181.68c5.37,6.31,13.42,8.12,21.08,6.29
	c-14.41,5.36-31.96,1.41-42.8-9.63C308.83,183.28,316.87,185.1,324.37,181.68z M276.88,181.68c7.5,3.42,15.54,1.6,21.72-3.34
	c-10.84,11.04-28.39,14.99-42.8,9.63C263.46,189.8,271.51,187.99,276.88,181.68z M221.94,210.7c8.21-0.85,14.29-6.54,17.2-13.99
	c-3.94,15.13-17.28,27.54-32.48,30.18C214.26,224.6,220.39,218.93,221.94,210.7z M188.65,263.74c6.68-4.9,9.15-12.91,8.01-20.83
	c4.01,15.04-1.38,32.45-13.13,42.47C188.89,279.56,191.33,271.59,188.65,263.74z M185.92,326.58c3.35-7.58,1.61-15.72-3.2-21.99
	c10.82,11.04,14.68,28.88,9.36,43.5C193.92,340.28,192.15,332.06,185.92,326.58z M214.49,382.39c-0.84-8.34-6.44-14.52-13.78-17.47
	c14.9,4,27.11,17.55,29.71,32.99C228.17,390.19,222.59,383.97,214.49,382.39z M266.7,416.21c-4.82-6.79-12.71-9.3-20.5-8.14
	c14.81-4.07,31.95,1.4,41.81,13.34C282.28,415.96,274.43,413.48,266.7,416.21z M334.55,416.21c-7.73-2.72-15.58-0.24-21.31,5.2
	c9.86-11.94,27-17.41,41.81-13.34C347.26,406.91,339.38,409.42,334.55,416.21z M386.77,382.39c-8.1,1.58-13.69,7.81-15.93,15.51
	c2.6-15.44,14.81-28.98,29.71-32.99C393.21,367.87,387.6,374.05,386.77,382.39z M415.34,326.58c-6.23,5.48-8.01,13.7-6.17,21.51
	c-5.32-14.62-1.46-32.46,9.36-43.5C413.73,310.86,411.98,318.99,415.34,326.58z M426.8,297.43c-22.54,9.38-29.62,42.32-13.2,60.45
	c1.84,2.71,3.5,4.57,4.87,5.8c-1.77-0.43-4.21-0.74-7.43-0.72c-24.14-3.33-46.49,21.61-41.19,45.65c0.26,3.28,0.78,5.74,1.36,7.5
	c-1.32-1.27-3.28-2.78-6.08-4.4c-19.27-15.14-50.89-4.9-58.14,18.61c-1.39,2.98-2.15,5.37-2.51,7.18c-0.53-1.82-1.53-4.21-3.25-7.14
	c-0.2-0.48-0.39-0.96-0.61-1.43c-0.22,0.47-0.41,0.95-0.61,1.43c-1.72,2.94-2.71,5.32-3.25,7.14c-0.36-1.82-1.12-4.21-2.51-7.18
	c-7.25-23.51-38.87-33.76-58.14-18.61c-2.8,1.62-4.76,3.12-6.08,4.4c0.58-1.76,1.1-4.21,1.36-7.5c5.3-24.04-17.05-48.98-41.19-45.65
	c-3.22-0.02-5.66,0.29-7.43,0.72c1.37-1.23,3.03-3.09,4.87-5.8c16.42-18.13,9.35-51.07-13.2-60.45c-2.78-1.66-5.04-2.62-6.79-3.15
	c1.79-0.37,4.14-1.14,7.07-2.55c23.15-7.36,33.23-39.48,18.33-59.06c-1.59-2.85-3.08-4.83-4.33-6.17c1.73,0.59,4.15,1.12,7.38,1.38
	c23.67,5.38,48.22-17.32,44.94-41.84c0.02-3.27-0.29-5.75-0.71-7.54c1.22,1.4,3.07,3.11,5.78,4.99
	c15.44,14.35,41.69,10.92,54.49-5.04c12.8,15.96,39.06,19.39,54.49,5.04c2.71-1.89,4.56-3.59,5.78-4.99
	c-0.42,1.8-0.73,4.27-0.71,7.54c-3.28,24.52,21.27,47.22,44.94,41.84c3.23-0.26,5.65-0.8,7.38-1.38c-1.25,1.34-2.74,3.33-4.33,6.17
	c-14.91,19.57-4.82,51.69,18.33,59.06c2.93,1.41,5.28,2.18,7.07,2.55C431.84,294.81,429.58,295.77,426.8,297.43z M333.66,356.3
	c-3.51,6.49-11.48,1.25-9.01-2.57c-0.54-1.99,2.42-3.18,3.29-1.12c0.84,2-1.85,3.33-2.97,1.8c-0.18,3.62,6.85,4.66,6.77-1.16
	c5.16,2.52,7.21-4.39,3.89-5.75c0.89,1.68-1.43,3.59-2.86,1.97c-1.47-1.67,0.85-3.9,2.4-2.55
	C339.56,346.33,340.99,355.8,333.66,356.3z M301.41,366.64c-0.27,0.16-0.52,0.27-0.78,0.39c-0.26-0.12-0.51-0.22-0.78-0.39
	c-6.59,3.29-10.01-5.64-5.92-7.35c0.68-1.96,3.78-1.21,3.33,0.99c-0.44,2.13-3.4,1.65-3.45-0.26c-2.2,2.86,2.98,7.81,6.2,3
	c0.2,0.35,0.4,0.66,0.62,0.93c0.22-0.27,0.43-0.57,0.62-0.93c3.22,4.8,8.4-0.14,6.2-3c-0.05,1.91-3.01,2.38-3.45,0.26
	c-0.45-2.19,2.65-2.95,3.33-0.99C311.42,361,308,369.93,301.41,366.64z M301.04,241.19c2.69-1.61,1.6-4.44-0.42-5.46
	c-2.01,1.02-3.11,3.85-0.42,5.46c-4.21-0.68-3.05-6.19,0.42-7.73C304.1,234.99,305.25,240.51,301.04,241.19z M351.09,273.79
	c-1.96,0.55-3.13-2.46-1.11-3.34c1.97-0.86,3.28,1.88,1.78,3.01c3.57,0.18,4.59-6.96-1.14-6.88c2.49-5.24-4.32-7.32-5.66-3.95
	c1.65-0.91,3.54,1.46,1.94,2.91c-1.64,1.5-3.84-0.86-2.51-2.43c-0.58-4.45,8.74-5.91,9.23,1.53
	C360.01,268.2,354.86,276.3,351.09,273.79z M363.81,297.4c3.78,6.33-4.67,10.73-6.7,6.64c-1.97-0.52-1.5-3.72,0.68-3.45
	c2.12,0.26,1.92,3.29,0.05,3.51c3,1.97,7.4-3.7,2.4-6.54c4.73-3.27-0.14-8.54-2.95-6.3c1.88,0.05,2.34,3.06,0.25,3.5
	c-2.16,0.46-2.9-2.7-0.97-3.38C358.26,287.24,367.05,290.71,363.81,297.4z M356.51,330.95c0.16,7.4-9.32,6.92-9.07,2.35
	c-1.45-1.45,0.53-3.99,2.29-2.64c1.71,1.3,0.04,3.82-1.68,3.07c1.63,3.23,8.22,0.55,5.29-4.45c5.71-0.43,4.08-7.46,0.54-6.95
	c1.6,1,0.53,3.84-1.51,3.16c-2.1-0.7-1.19-3.81,0.82-3.42C356.7,319.33,362.6,326.8,356.51,330.95z M381.1,428.95
	C383.18,428.61,384.76,430.48,381.1,428.95L381.1,428.95z M378.51,427.73c1.07,0.55,1.91,0.94,2.59,1.22
	c-1.2,0.2-2.56,1.13-3.17,3.89C378.39,431.19,378.57,429.46,378.51,427.73z M305.08,451.28c0.65,1.02,1.19,1.79,1.64,2.37
	c-1.14-0.44-2.77-0.32-4.66,1.76C303.27,454.21,304.28,452.81,305.08,451.28z M306.72,453.66
	C308.69,454.42,309.14,456.84,306.72,453.66L306.72,453.66z M366.91,163.38C365.57,161.72,366.38,159.4,366.91,163.38L366.91,163.38
	z M367.16,166.27c-0.06-1.21-0.15-2.15-0.25-2.89c0.77,0.95,2.25,1.68,4.9,0.85C370.17,164.65,368.6,165.35,367.16,166.27z
	 M423.95,219.09c0.54-1.08,0.93-1.94,1.21-2.63c0.2,1.22,1.12,2.6,3.83,3.22C427.36,219.21,425.66,219.03,423.95,219.09z
	 M425.16,216.46C424.82,214.34,426.66,212.74,425.16,216.46L425.16,216.46z M449.48,292.01C450.22,290,452.61,289.55,449.48,292.01
	L449.48,292.01z M451.21,296.74c-1.18-1.24-2.56-2.26-4.07-3.07c1-0.66,1.76-1.21,2.34-1.66
	C449.05,293.16,449.17,294.82,451.21,296.74z M433.35,369.79C434.98,368.43,437.28,369.25,433.35,369.79L433.35,369.79z
	 M430.51,370.04c1.19-0.06,2.12-0.15,2.84-0.25c-0.94,0.78-1.66,2.28-0.83,4.98C432.1,373.1,431.41,371.51,430.51,370.04z
	 M409.98,285.66c-0.76-1.01-1.98-2.58-3.83-4.88c-6.81-8.5-10.95-14.33-8.01-31.16c-1.76,13.18,3.02,27.29,12.89,36.44
	c-9.11-9.22-14.03-24.52-12.67-37.29c4.01-8.47,5.06-13.22,9.74-19.43c-7.44,1.68-12.33,0.68-21.44,0.78
	c-12.36-4.25-23.7-15.52-27.95-27.4c0.09,0.28,0.2,0.55,0.29,0.83c-0.14-0.37-0.27-0.7-0.39-0.97c-0.04-3.48-0.17-7.26-0.39-11.4
	c-0.49-11.06,3.19-9.14-6.03-3.19c-3.89,2.46-7.35,4.77-10.45,6.95c-1.24,0.16-3.21,0.46-6.08,0.93
	c-10.66,1.74-17.69,2.47-30.57-8.53c10.36,8.13,24.78,10.98,37.51,6.88c-12.41,3.4-27.91,0.08-38.12-7.49
	c-1.4-2.09-2.69-3.86-3.87-5.47c-1.18,1.61-2.47,3.38-3.87,5.47c-10.21,7.57-25.71,10.89-38.12,7.49
	c12.74,4.11,27.15,1.26,37.51-6.88c-12.88,11-19.91,10.27-30.57,8.53c-2.87-0.47-4.84-0.77-6.08-0.93
	c-3.1-2.17-6.56-4.48-10.45-6.95c-9.22-5.95-5.54-7.87-6.03,3.19c-0.22,4.14-0.34,7.92-0.39,11.4c-0.11,0.27-0.24,0.6-0.39,0.97
	c0.09-0.28,0.2-0.55,0.29-0.83c-4.25,11.88-15.6,23.15-27.95,27.4c-9.11-0.11-14,0.9-21.44-0.78c4.69,6.21,5.74,10.96,9.74,19.43
	c1.36,12.77-3.56,28.06-12.67,37.29c9.87-9.15,14.65-23.26,12.89-36.44c2.94,16.83-1.2,22.66-8.01,31.16
	c-1.85,2.3-3.07,3.87-3.83,4.88c-3.4,1.64-7.1,3.53-11.15,5.72c-9.68,5.13-9.48,0.94-0.3,6.9c3.41,2.26,6.58,4.26,9.52,6.04
	c0.17,0.24,0.39,0.51,0.63,0.82c-0.19-0.22-0.37-0.45-0.56-0.66c8,9.68,11.94,25.3,9.38,38.29c-4.64,7.96-6.23,12.76-11.39,18.47
	c7.64-1.02,12.21,0.43,21.44,1.14c11.57,5.19,22.14,17.17,25.46,29.79c-2.87-13.26-12.51-24.51-24.62-29.56
	c15.82,5.83,18.72,12.38,22.56,22.62c1.03,2.76,1.76,4.64,2.25,5.81c-0.3,3.81-0.55,8.01-0.7,12.66c-0.47,11.08-3.94,8.81,5.73,3.71
	c3.64-1.87,6.92-3.66,9.91-5.36c0.29-0.04,0.63-0.09,1.02-0.14c-0.28,0.06-0.57,0.1-0.85,0.16c12.25-2.2,27.54,2.15,37.34,10.89
	c4.46,8.06,7.76,11.86,10.05,19.25c1.11-2.72,2.3-4.87,3.63-6.92c1.33,2.05,2.52,4.21,3.63,6.92c2.29-7.38,5.59-11.19,10.05-19.25
	c9.8-8.74,25.09-13.09,37.34-10.89c-0.28-0.06-0.57-0.1-0.85-0.16c0.38,0.06,0.73,0.11,1.02,0.14c2.99,1.7,6.28,3.49,9.91,5.36
	c9.67,5.09,6.2,7.37,5.73-3.71c-0.15-4.65-0.4-8.85-0.7-12.66c0.48-1.17,1.21-3.05,2.25-5.81c3.84-10.24,6.74-16.8,22.56-22.62
	c-12.12,5.05-21.75,16.3-24.62,29.56c3.31-12.62,13.89-24.6,25.46-29.79c9.23-0.71,13.8-2.16,21.44-1.14
	c-5.15-5.71-6.74-10.51-11.39-18.47c-2.55-12.99,1.38-28.61,9.38-38.29c-0.19,0.21-0.37,0.44-0.56,0.66
	c0.24-0.31,0.46-0.59,0.63-0.82c2.94-1.78,6.11-3.78,9.52-6.04c9.18-5.96,9.39-1.77-0.3-6.9
	C417.08,289.19,413.38,287.3,409.98,285.66z M396.32,268.96c2.97,4.62,9.64,12.71,12.84,16.31c-46.96-22.4-32.94,4.77-13.5-31.11
	c0.63-1.17,1.18-2.26,1.7-3.31C396.69,255.32,396.08,261.85,396.32,268.96z M384.17,293.18c-1.22,0.67-2.36,1.47-3.37,2.41
	c-0.03,0.03-0.05,0.07-0.08,0.1c-3.13,1.09-6.76-0.05-7.91-4.04c-0.52-2.07,0.39-4,1.92-5.11c-0.03,1.06,0.81,2.16,2.15,1.82
	c2.24-0.57,1.39-4-0.84-3.43c-0.68,0.17-1.07,0.61-1.23,1.11c-3.88,1.22-5.26,7.13-1.14,10.77c0.46,0.41-1.87,1.23-2.04,5.35
	c-0.03,2.88,1.84,5.04,4.13,5.55c0.2,0.49,0.63,0.88,1.32,0.99c2.27,0.36,2.82-3.13,0.54-3.5c-1.38-0.22-2.12,0.98-1.98,2.04
	c-2.96-1.7-3.3-6.03-0.37-8.52c1.88-1.63,3.68-2.12,5.26-1.85c0.37,1.02,1.88,2.21,4.11,3.08c2.8,4.49,2.53,12.49-4.14,15.66
	c-5.79,0.28-12.02-0.69-18.65-3.61c-3.18-1.26-5.78-2.57-7.87-3.91c-2.45-3.72-1.86-8.25,1.65-10.34
	c-3.66-1.76-4.65-6.21-2.56-10.13c6.64-5.45,17.24-9.41,25.24-9.87c3.29,1.26,6.02,3.91,7.14,7.71
	C386.23,288.75,385.55,291.37,384.17,293.18z M386.35,295.08c8.23-3.05,21.15,0.22,8.8,3.06c-2.8,0.65-5.75,0.6-8.51-0.26
	c-0.48-0.51-1.02-0.98-1.64-1.42C385.51,296.02,385.95,295.56,386.35,295.08z M376.21,337.64c-1.39-0.04-2.77,0.07-4.1,0.38
	c-0.05,0.01-0.08,0.03-0.12,0.05c-3.25-0.64-5.83-3.48-4.86-7.51c0.57-2.06,2.3-3.27,4.18-3.45c-0.55,0.9-0.37,2.28,0.96,2.67
	c2.22,0.64,3.17-2.76,0.96-3.4c-0.67-0.19-1.22-0.02-1.61,0.34c-3.96-0.92-8.07,3.5-6.29,8.75c0.19,0.59-2.23,0.12-4.4,3.59
	c-1.45,2.47-0.89,5.3,0.85,6.91c-0.06,0.53,0.11,1.08,0.65,1.53c1.79,1.47,3.98-1.28,2.19-2.75c-1.09-0.89-2.32-0.23-2.72,0.76
	c-1.73-2.98,0.1-6.9,3.87-7.57c2.43-0.45,4.23,0.03,5.47,1.07c-0.18,1.08,0.54,2.87,2.05,4.76c0.22,5.31-3.96,12.1-11.3,11.45
	c-5.16-2.7-10.07-6.71-14.38-12.6c-2.13-2.7-3.74-5.16-4.89-7.39c-0.29-4.47,2.46-8.09,6.52-8.12c-2.3-3.39-0.97-7.74,2.77-10.07
	c8.43-1.35,19.56,0.6,26.72,4.27c2.23,2.76,3.29,6.44,2.39,10.3C380.18,334.84,378.3,336.76,376.21,337.64z M383.28,347.5
	c-2.75-0.86-5.28-2.4-7.24-4.55c-0.16-0.68-0.4-1.37-0.72-2.06c0.66-0.12,1.27-0.29,1.85-0.5
	C385.8,341.92,395.38,351.32,383.28,347.5z M347.44,372.09c-1.18-0.74-2.43-1.34-3.74-1.76c-0.05-0.01-0.09-0.01-0.13-0.02
	c-2.5-2.21-3.33-5.97-0.51-8.98c1.51-1.49,3.6-1.66,5.31-0.86c-0.92,0.5-1.44,1.79-0.48,2.8c1.6,1.68,4.11-0.78,2.51-2.46
	c-0.48-0.51-1.05-0.63-1.56-0.52c-2.98-2.81-8.71-1.06-9.76,4.38c-0.12,0.61-1.99-1.03-5.58,0.87c-2.46,1.4-3.35,4.12-2.65,6.39
	c-0.32,0.42-0.45,1-0.2,1.67c0.83,2.18,4.08,0.92,3.25-1.27c-0.5-1.33-1.9-1.38-2.73-0.72c-0.03-3.46,3.49-5.92,7.08-4.59
	c2.33,0.84,3.65,2.18,4.2,3.71c-0.69,0.84-0.94,2.76-0.57,5.16c-2.42,4.71-9.39,8.47-15.42,4.18c-3.14-4.96-5.42-10.92-6.25-18.21
	c-0.52-3.42-0.7-6.37-0.6-8.88c1.95-4.01,6.11-5.76,9.64-3.72c-0.33-4.11,2.97-7.19,7.36-7.31c7.96,3.12,16.64,10.46,21.04,17.27
	c0.57,3.52-0.32,7.25-3,10.14C352.25,371.68,349.68,372.4,347.44,372.09z M348.71,384.23c-1.96-2.14-3.39-4.76-4.04-7.62
	c0.19-0.67,0.33-1.39,0.39-2.15c0.63,0.23,1.24,0.39,1.85,0.5C353.64,380.67,357.31,393.68,348.71,384.23z M300.31,389.79
	c0.12,0.4,0.23,0.8,0.32,1.21c0.09-0.41,0.2-0.81,0.32-1.21c0.49-0.48,0.97-1,1.39-1.63c0.43,0.52,0.88,0.97,1.36,1.38
	c3.01,8.36-0.22,21.49-3.01,8.94c-0.03-0.11-0.04-0.23-0.06-0.34c-0.02,0.11-0.04,0.23-0.06,0.34c-2.79,12.55-6.02-0.58-3.01-8.94
	c0.47-0.4,0.93-0.86,1.36-1.38C299.34,388.78,299.81,389.31,300.31,389.79z M300.63,378.99c1.16,1.66,1.5,3.23,1.26,4.64
	c-0.4,0.16-0.83,0.49-1.26,0.99c-0.43-0.5-0.85-0.83-1.26-0.99C299.13,382.22,299.46,380.65,300.63,378.99z M303.19,383.9
	c-0.03-0.04-0.07-0.06-0.1-0.09c-1.07-3.18,0.05-6.87,3.97-8.03c2.04-0.53,3.94,0.39,5.03,1.95c-1.04-0.03-2.13,0.82-1.8,2.18
	c0.56,2.27,3.94,1.41,3.38-0.86c-0.17-0.69-0.6-1.08-1.09-1.24c-1.2-3.94-7.02-5.35-10.61-1.16c-0.21,0.24-0.53-0.27-1.35-0.85
	c-0.81,0.58-1.14,1.09-1.35,0.85c-3.59-4.18-9.41-2.78-10.61,1.16c-0.5,0.16-0.92,0.56-1.09,1.24c-0.56,2.27,2.82,3.13,3.38,0.86
	c0.34-1.36-0.75-2.21-1.8-2.18c1.09-1.56,2.99-2.48,5.03-1.95c3.92,1.17,5.05,4.86,3.97,8.03c-0.03,0.03-0.07,0.05-0.1,0.09
	c-0.93,1.02-1.71,2.18-2.37,3.42c-1.79,1.4-4.37,2.09-7.59,1.29c-3.74-1.14-6.34-3.91-7.59-7.25c0.45-8.14,4.36-18.91,9.73-25.65
	c3.85-2.12,8.22-1.11,9.95,2.6c0.13-0.22,0.27-0.42,0.42-0.61c0.14,0.2,0.29,0.39,0.42,0.61c1.73-3.72,6.1-4.72,9.95-2.6
	c5.37,6.74,9.28,17.51,9.73,25.65c-1.24,3.34-3.85,6.11-7.59,7.25c-3.22,0.8-5.8,0.11-7.59-1.29
	C304.9,386.08,304.12,384.92,303.19,383.9z M258.81,370.74c0.56-1.53,1.87-2.86,4.2-3.71c3.59-1.33,7.11,1.13,7.08,4.59
	c-0.83-0.65-2.23-0.61-2.73,0.72c-0.83,2.19,2.43,3.45,3.25,1.27c0.25-0.67,0.12-1.25-0.2-1.67c0.7-2.27-0.19-4.99-2.65-6.39
	c-3.59-1.9-5.46-0.27-5.58-0.87c-1.05-5.44-6.78-7.19-9.76-4.38c-0.51-0.11-1.08,0.01-1.56,0.52c-1.6,1.68,0.9,4.14,2.51,2.46
	c0.96-1.01,0.44-2.3-0.48-2.8c1.71-0.8,3.81-0.63,5.31,0.86c2.82,3,1.98,6.77-0.51,8.98c-0.04,0.01-0.09,0.01-0.13,0.02
	c-1.31,0.42-2.56,1.02-3.74,1.76c-2.24,0.3-4.81-0.41-7.2-2.74c-2.68-2.89-3.57-6.61-3-10.14c4.4-6.81,13.07-14.15,21.04-17.27
	c4.39,0.12,7.68,3.21,7.36,7.31c3.53-2.04,7.7-0.29,9.64,3.72c0.1,2.51-0.08,5.46-0.6,8.88c-0.83,7.29-3.11,13.26-6.25,18.21
	c-6.03,4.29-13,0.53-15.42-4.18C259.75,373.5,259.49,371.58,258.81,370.74z M256.58,376.61c-0.65,2.86-2.08,5.48-4.04,7.62
	c-8.6,9.45-4.93-3.56,1.79-9.27c0.61-0.11,1.22-0.27,1.85-0.5C256.25,375.22,256.39,375.94,256.58,376.61z M230.03,339
	c1.23-1.04,3.03-1.53,5.47-1.07c3.77,0.67,5.6,4.59,3.87,7.57c-0.4-0.99-1.63-1.66-2.72-0.76c-1.79,1.47,0.4,4.22,2.19,2.75
	c0.54-0.44,0.71-1,0.65-1.53c1.73-1.61,2.29-4.43,0.85-6.91c-2.17-3.47-4.6-3.01-4.4-3.59c1.77-5.25-2.33-9.67-6.29-8.75
	c-0.39-0.36-0.94-0.53-1.61-0.34c-2.21,0.64-1.26,4.05,0.96,3.4c1.33-0.39,1.51-1.77,0.96-2.67c1.88,0.18,3.61,1.39,4.18,3.45
	c0.96,4.03-1.62,6.87-4.86,7.51c-0.04-0.01-0.08-0.04-0.12-0.05c-1.34-0.3-2.71-0.42-4.1-0.38c-2.09-0.87-3.96-2.8-4.89-6.03
	c-0.9-3.86,0.16-7.54,2.39-10.3c7.16-3.66,18.29-5.62,26.72-4.27c3.74,2.33,5.08,6.68,2.77,10.07c4.06,0.03,6.81,3.66,6.52,8.12
	c-1.15,2.23-2.76,4.68-4.89,7.39c-4.31,5.89-9.22,9.9-14.38,12.6c-7.33,0.65-11.51-6.14-11.3-11.45
	C229.49,341.87,230.21,340.08,230.03,339z M225.93,340.89c-0.32,0.69-0.56,1.38-0.72,2.06c-1.97,2.15-4.5,3.69-7.24,4.55
	c-12.1,3.82-2.52-5.58,6.11-7.12C224.66,340.6,225.28,340.77,225.93,340.89z M216.62,299.98c2.23-0.87,3.74-2.05,4.11-3.08
	c1.58-0.28,3.38,0.22,5.26,1.85c2.93,2.5,2.59,6.82-0.37,8.52c0.14-1.06-0.6-2.27-1.98-2.04c-2.28,0.37-1.73,3.86,0.54,3.5
	c0.69-0.11,1.11-0.51,1.32-0.99c2.29-0.51,4.17-2.67,4.13-5.55c-0.17-4.11-2.5-4.94-2.04-5.35c4.12-3.64,2.74-9.56-1.14-10.77
	c-0.16-0.5-0.55-0.94-1.23-1.11c-2.23-0.57-3.08,2.87-0.84,3.43c1.34,0.34,2.18-0.76,2.15-1.82c1.54,1.11,2.44,3.04,1.92,5.11
	c-1.15,3.98-4.78,5.13-7.91,4.04c-0.03-0.03-0.05-0.07-0.08-0.1c-1.01-0.94-2.14-1.74-3.37-2.41c-1.38-1.82-2.06-4.43-1.27-7.7
	c1.12-3.8,3.85-6.44,7.14-7.71c8,0.46,18.6,4.42,25.24,9.87c2.09,3.92,1.11,8.36-2.56,10.13c3.5,2.09,4.1,6.62,1.65,10.34
	c-2.1,1.34-4.7,2.65-7.87,3.91c-6.63,2.91-12.86,3.89-18.65,3.61C214.1,312.47,213.82,304.47,216.62,299.98z M214.62,297.88
	c-2.76,0.86-5.71,0.91-8.51,0.26c-12.36-2.84,0.57-6.11,8.8-3.06c0.4,0.48,0.84,0.94,1.36,1.38
	C215.64,296.89,215.09,297.37,214.62,297.88z M228.33,256.3c2.36,0.38,4.25,0.12,5.08-0.58c1.5,0.56,2.82,1.9,3.65,4.27
	c1.31,3.65-1.12,7.22-4.52,7.19c0.64-0.85,0.6-2.27-0.71-2.78c-2.15-0.84-3.4,2.46-1.25,3.3c0.66,0.26,1.23,0.12,1.65-0.2
	c2.24,0.71,4.91-0.19,6.29-2.7c1.87-3.65,0.26-5.55,0.86-5.67c5.36-1.06,7.08-6.89,4.31-9.91c0.11-0.52-0.01-1.09-0.52-1.58
	c-1.66-1.63-4.08,0.92-2.42,2.54c1,0.98,2.26,0.44,2.76-0.49c0.78,1.74,0.62,3.87-0.85,5.4c-2.95,2.86-6.66,2.01-8.84-0.52
	c-0.01-0.04-0.01-0.09-0.02-0.13c-0.41-1.33-1-2.6-1.73-3.8c-0.3-2.27,0.4-4.88,2.7-7.32c2.84-2.72,6.51-3.62,9.98-3.05
	c6.7,4.46,13.93,13.28,17,21.37c-0.12,4.46-3.16,7.8-7.2,7.47c2.01,3.59,0.29,7.82-3.66,9.8c-2.48,0.1-5.37-0.09-8.74-0.61
	c-7.18-0.85-13.05-3.16-17.93-6.35C219.99,265.83,223.69,258.76,228.33,256.3z M220.13,249.36c-9.3-8.73,3.5-5,9.12,1.82
	c0.11,0.62,0.27,1.24,0.5,1.88c-0.75,0.07-1.46,0.2-2.12,0.4C224.81,252.8,222.23,251.34,220.13,249.36z M264.65,226.49
	c1.03,1.25,1.5,3.08,1.06,5.55c-0.66,3.83-4.52,5.69-7.45,3.93c0.98-0.41,1.63-1.66,0.75-2.76c-1.45-1.82-4.16,0.41-2.71,2.23
	c0.44,0.55,0.99,0.73,1.5,0.66c1.58,1.76,4.36,2.33,6.8,0.86c3.42-2.21,2.96-4.67,3.54-4.47c5.17,1.8,9.52-2.37,8.61-6.39
	c0.35-0.39,0.53-0.95,0.33-1.63c-0.63-2.25-3.98-1.28-3.35,0.97c0.38,1.35,1.74,1.53,2.63,0.98c-0.18,1.91-1.37,3.67-3.39,4.24
	c-3.97,0.98-6.76-1.64-7.4-4.94c0.01-0.04,0.04-0.08,0.05-0.13c0.3-1.36,0.41-2.76,0.37-4.17c0.86-2.12,2.75-4.03,5.94-4.97
	c3.8-0.91,7.42,0.17,10.14,2.43c3.61,7.27,5.53,18.58,4.2,27.14c-2.29,3.8-6.58,5.16-9.91,2.82c-0.03,4.13-3.6,6.91-8,6.62
	c-2.19-1.17-4.61-2.8-7.27-4.97c-5.8-4.38-9.75-9.37-12.4-14.61c-0.64-7.45,6.05-11.7,11.28-11.47
	C261.83,225.94,263.59,226.67,264.65,226.49z M256.29,214.24c-3.76-12.29,5.5-2.56,7.01,6.21c-0.21,0.59-0.38,1.21-0.5,1.88
	c-0.68-0.32-1.36-0.57-2.03-0.73C258.65,219.6,257.13,217.03,256.29,214.24z M300.63,245.48c-1.8,0.25-3.78-0.25-5.58-1.48
	c-1.32-2.12-2.61-4.76-3.84-7.98c-2.87-6.73-3.83-13.05-3.55-18.94c2.59-5.66,8.51-6.8,12.97-5.36c4.46-1.44,10.38-0.3,12.97,5.36
	c0.28,5.88-0.69,12.2-3.55,18.94c-1.23,3.22-2.52,5.85-3.84,7.98C304.41,245.22,302.43,245.73,300.63,245.48z M303.63,247.48
	c-0.99,1.09-2,1.94-3,2.55c-1.01-0.61-2.01-1.45-3-2.55c0.96,0.35,1.97,0.54,3,0.53C301.66,248.03,302.67,247.83,303.63,247.48z
	 M288.04,250.56c1.7-6.03,1.65-9.54,1.48-10.91c0.41,1.32,1.82,4.54,5.86,9.27c1.8,2.08,3.55,3.57,5.25,4.54
	c1.7-0.97,3.45-2.45,5.25-4.54c4.04-4.73,5.44-7.94,5.86-9.27c-0.17,1.38-0.22,4.89,1.48,10.91c4.26,14.81,14.72,12.29,27.08,3.43
	c-7.66,13.39-9.08,24.1,5.75,27.1c6.05,1.19,9.49,0.82,10.83,0.52c-1.26,0.54-4.28,2.25-8.57,6.76
	c-10.49,11.16-3.12,19.09,10.62,25.54c-15.24-0.04-25.09,4.06-20.23,18.6c2.01,5.92,4.05,8.76,4.97,9.78
	c-1.09-0.84-4.06-2.64-10.04-4.16c-14.76-3.65-17.84,6.8-16.46,22.11c-5.06-8.97-10.5-14.88-16.53-14.4
	c-6.02-0.49-11.46,5.43-16.53,14.4c1.38-15.3-1.7-25.76-16.46-22.11c-5.99,1.52-8.96,3.32-10.04,4.16c0.92-1.03,2.96-3.87,4.97-9.78
	c4.86-14.54-4.99-18.65-20.23-18.6c13.74-6.44,21.11-14.38,10.62-25.54c-4.29-4.51-7.31-6.22-8.57-6.76
	c1.33,0.3,4.78,0.67,10.83-0.52c14.83-3,13.41-13.71,5.75-27.1C273.32,262.85,283.77,265.37,288.04,250.56z M335.63,225.59
	c0.01,0.05,0.03,0.08,0.05,0.13c-0.63,3.3-3.43,5.92-7.4,4.94c-2.03-0.58-3.22-2.34-3.39-4.24c0.89,0.55,2.25,0.37,2.63-0.98
	c0.63-2.25-2.72-3.22-3.35-0.97c-0.19,0.68-0.02,1.24,0.33,1.63c-0.9,4.02,3.45,8.2,8.61,6.39c0.58-0.2,0.12,2.26,3.54,4.47
	c2.44,1.47,5.21,0.9,6.8-0.86c0.52,0.06,1.07-0.11,1.5-0.66c1.45-1.82-1.26-4.05-2.71-2.23c-0.88,1.11-0.22,2.36,0.75,2.76
	c-2.93,1.75-6.79-0.11-7.45-3.93c-0.45-2.47,0.03-4.3,1.06-5.55c1.06,0.18,2.82-0.55,4.68-2.08c5.23-0.22,11.91,4.02,11.28,11.47
	c-2.66,5.24-6.6,10.23-12.4,14.61c-2.66,2.17-5.08,3.8-7.27,4.97c-4.4,0.29-7.97-2.5-8-6.62c-3.34,2.34-7.62,0.99-9.91-2.82
	c-1.33-8.56,0.6-19.87,4.2-27.14c2.72-2.26,6.34-3.34,10.14-2.43c3.18,0.94,5.08,2.84,5.94,4.97
	C335.22,222.83,335.33,224.23,335.63,225.59z M337.96,220.45c1.51-8.77,10.76-18.5,7.01-6.21c-0.85,2.79-2.36,5.36-4.48,7.36
	c-0.67,0.17-1.35,0.41-2.03,0.73C338.34,221.66,338.17,221.04,337.96,220.45z M358.08,247.64c-0.5,0.49-0.62,1.07-0.52,1.58
	c-2.76,3.02-1.05,8.85,4.31,9.91c0.6,0.12-1.01,2.02,0.86,5.67c1.38,2.5,4.06,3.41,6.29,2.7c0.42,0.33,0.99,0.46,1.65,0.2
	c2.15-0.84,0.9-4.14-1.25-3.3c-1.31,0.51-1.35,1.93-0.71,2.78c-3.4,0.03-5.83-3.54-4.52-7.19c0.83-2.37,2.14-3.71,3.65-4.27
	c0.83,0.7,2.72,0.96,5.08,0.58c4.64,2.46,8.34,9.54,4.12,15.66c-4.88,3.19-10.75,5.5-17.93,6.35c-3.37,0.52-6.27,0.71-8.74,0.61
	c-3.95-1.98-5.67-6.21-3.66-9.8c-4.04,0.33-7.08-3.02-7.2-7.47c3.07-8.09,10.3-16.91,17-21.37c3.47-0.58,7.14,0.33,9.98,3.05
	c2.29,2.43,3,5.04,2.7,7.32c-0.73,1.2-1.32,2.47-1.73,3.8c-0.01,0.05-0.01,0.09-0.02,0.13c-2.17,2.53-5.88,3.39-8.84,0.52
	c-1.47-1.53-1.63-3.66-0.85-5.4c0.5,0.93,1.76,1.46,2.76,0.49C362.16,248.56,359.73,246.02,358.08,247.64z M371.5,253.06
	c0.23-0.64,0.39-1.26,0.5-1.88c5.62-6.83,18.43-10.55,9.12-1.82c-2.1,1.99-4.68,3.44-7.5,4.1
	C372.96,253.26,372.26,253.12,371.5,253.06z M346.13,278.39c-7.01-1.61-8.93-6.51-7.86-12.4c0.71,2.34,2.32,4.39,4.88,5.43
	C342.99,274.35,344.23,276.76,346.13,278.39z M328.95,257.15c-6.86,2.17-10.93-1.1-12.91-6.74c1.76,1.67,4.17,2.63,6.9,2.23
	C324.24,255.25,326.5,256.71,328.95,257.15z M350.55,305.5c-5.28-4.95-4.53-10.17-0.7-14.73c-0.54,2.39-0.16,4.98,1.55,7.19
	C349.82,300.41,349.71,303.13,350.55,305.5z M345.48,325.13c-2.57,1.32-4.01,3.62-4.45,6.1c-2.14-6.97,1.09-11.1,6.64-13.11
	C346.03,319.91,345.09,322.35,345.48,325.13z M332.33,340.7c-2.3,0.72-4.33,2.35-5.35,4.96c-2.88-0.16-5.25,1.1-6.85,3.02
	C321.71,341.55,326.54,339.61,332.33,340.7z M307.93,352.46c-2.35-0.55-4.9-0.16-7.07,1.58c-0.08-0.05-0.16-0.08-0.23-0.13
	c-0.08,0.05-0.16,0.08-0.23,0.13c-2.17-1.74-4.72-2.13-7.07-1.58c2.3-1.99,4.78-3.17,7.3-3.11
	C303.15,349.29,305.62,350.46,307.93,352.46z M281.12,348.68c-1.6-1.93-3.97-3.19-6.85-3.02c-1.02-2.61-3.05-4.24-5.35-4.96
	C274.72,339.61,279.54,341.55,281.12,348.68z M253.58,318.12c5.55,2.01,8.78,6.14,6.64,13.11c-0.44-2.48-1.87-4.78-4.45-6.1
	C256.17,322.35,255.22,319.91,253.58,318.12z M251.41,290.78c3.82,4.56,4.58,9.77-0.7,14.73c0.84-2.37,0.73-5.09-0.85-7.54
	C251.56,295.76,251.95,293.16,251.41,290.78z M255.13,278.39c1.9-1.63,3.14-4.04,2.98-6.96c2.57-1.04,4.18-3.09,4.88-5.43
	C264.05,271.88,262.14,276.78,255.13,278.39z M272.3,257.15c2.44-0.45,4.7-1.9,6-4.52c2.74,0.4,5.14-0.56,6.9-2.23
	C283.24,256.05,279.17,259.32,272.3,257.15z M400.39,231.99c5.83-0.47,4.98-1.78,2.11,3.36c-4.73,8.69-10,24.85-22.91,34.79
	c2.5-4.98,1.51-11.62-2.69-14.98c4.65-1.91,9.79-6.08,12.35-13.59c-7.2-0.76-13.3,1.65-17.33,5.63c-1.23-5.31-6.78-9.02-12.3-8.79
	C374.11,230.6,392.51,232.55,400.39,231.99z M386.27,230.14c-0.19,0-0.38,0-0.58,0.01c-0.97-0.39-2.16-0.85-3.58-1.4
	c-10.09-3.9-16.54-6.84-22.27-22.91C364.46,217.29,374.39,226.56,386.27,230.14z M358.63,204.15c1.3,3.96,4.38,11.58,9.15,19.35
	c4.03,2.07,11.47,4.93,16.47,6.69c-1.12,0.04-2.29,0.09-3.54,0.17C340.22,233.14,358.97,257.84,358.63,204.15z M353.1,189.41
	c4.82-3.37,3.43-4.07,3.48,1.84c0.18,9.93,3.57,26.6-2.71,41.76c-0.29-5.58-4.41-10.83-9.71-11.6c3.09-4.02,5.49-10.24,4-18.04
	c-6.61,3-10.71,8.18-12.24,13.68c-3.68-3.97-10.31-4.37-14.98-1.36C329.66,201.55,346.56,193.9,353.1,189.41z M320.68,198.62
	c5.42-0.3,15.64-2.12,20.32-3.14c-42.58,30.11-12.4,31.37-33.28-3.68c-0.68-1.12-1.33-2.17-1.96-3.14
	C309.25,191.49,314.51,195.28,320.68,198.62z M300.63,184.77c5.2,7.75,11.27,17.54,12.7,29.17c-2.72-4.25-8.03-6.67-12.7-5.58
	c-4.67-1.09-9.98,1.33-12.7,5.58C289.36,202.32,295.43,192.52,300.63,184.77z M280.57,198.62c6.17-3.35,11.43-7.13,14.91-9.96
	c-0.63,0.98-1.28,2.02-1.96,3.14c-20.88,35.04,9.3,33.79-33.28,3.68C264.93,196.5,275.16,198.32,280.57,198.62z M248.15,189.41
	c6.54,4.48,23.44,12.14,32.15,26.28c-4.67-3.01-11.3-2.61-14.98,1.36c-1.53-5.5-5.63-10.68-12.24-13.68
	c-1.49,7.8,0.91,14.02,4,18.04c-5.29,0.78-9.42,6.02-9.71,11.6c-6.28-15.16-2.89-31.83-2.71-41.76
	C244.72,185.34,243.34,186.04,248.15,189.41z M242.62,204.15c-0.34,53.69,18.41,28.99-22.08,26.21c-1.26-0.08-2.42-0.13-3.54-0.17
	c5-1.76,12.44-4.62,16.47-6.69C238.24,215.73,241.32,208.11,242.62,204.15z M241.42,205.83c-5.74,16.07-12.19,19.01-22.27,22.91
	c-1.43,0.55-2.61,1.01-3.58,1.4c-0.2,0-0.39-0.01-0.58-0.01C226.86,226.56,236.79,217.29,241.42,205.83z M198.76,235.35
	c-2.87-5.14-3.72-3.84,2.11-3.36c7.87,0.56,26.27-1.39,40.78,6.43c-5.52-0.23-11.07,3.48-12.3,8.79
	c-4.03-3.99-10.13-6.39-17.33-5.63c2.55,7.51,7.69,11.67,12.35,13.59c-4.2,3.36-5.19,10-2.69,14.98
	C208.76,260.2,203.49,244.04,198.76,235.35z M204.93,268.96c0.23-7.12-0.37-13.64-1.04-18.11c0.52,1.05,1.08,2.14,1.7,3.31
	c19.44,35.89,33.46,8.71-13.5,31.11C195.3,281.67,201.96,273.58,204.93,268.96z M180.7,296.86c-5.02-3-5.11-1.43,0.17-3.98
	c7.09-3.51,22.07-14.55,38.48-15.14c-4.9,2.61-7.88,8.63-6.33,13.86c-5.45-1.4-11.92-0.39-17.78,3.93c5.91,5.21,12.41,6.2,17.38,5.5
	c-1.99,5.04,0.42,11.29,5.04,14.34C201.59,313.3,189.07,301.98,180.7,296.86z M201.97,337.63c-0.7,1.07-1.32,2.06-1.91,3.03
	c1-5.28,2.29-13.25,2.53-17.84c-4.24-8.07-9.2-14.59-11.92-17.72C236.28,332.26,224.59,303.41,201.97,337.63z M191.5,307.01
	c10.83,13.08,10.11,20.23,8.4,31.05c-0.24,1.53-0.44,2.8-0.59,3.85c-0.1,0.17-0.2,0.34-0.3,0.51
	C201.9,330.18,198.96,316.81,191.5,307.01z M195.34,359.3c-5.82-0.05-5.13,1.35-1.81-3.54c4.42-6.64,11.95-23.81,25.87-32.66
	c-2.96,4.74-2.57,11.48,1.34,15.22c-5.41,1.55-10.51,5.72-13.47,12.43c7.68,1.51,13.8-0.93,17.76-4.07
	c0.76,5.38,5.93,9.56,11.43,9.86C221.53,362.92,205.11,359.48,195.34,359.3z M227.08,370.67c-5.95-3.76-11.81-6.49-15.96-8.14
	c1.16,0.07,2.36,0.12,3.67,0.16c40.32,0.84,24.16-25.08,19.77,27.43C233.1,385.49,229.54,375.59,227.08,370.67z M238.75,405.94
	c-5.06,2.91-3.78,3.78-3.31-2.14c0.55-8-1.37-26.69,6.33-41.42c-0.23,5.61,3.42,11.25,8.65,12.5c-3.92,4.09-6.29,10.29-5.54,17.6
	c7.39-2.59,11.49-7.81,13.38-12.54c3.31,4.27,9.84,5.27,14.75,2.74C263.22,395.78,247.3,401.13,238.75,405.94z M284.16,407.61
	c0.56,1.14,1.1,2.19,1.63,3.2c-4-3.52-10.16-8.64-13.94-11.15c-9-0.31-17.04,0.8-21.07,1.63
	C296.72,374.74,266.28,370.6,284.16,407.61z M252.81,401.51c16.57-2.99,22.3,1.22,30.67,8.14c1.19,0.99,2.17,1.78,2.99,2.45
	c0.1,0.18,0.19,0.35,0.29,0.52C277.76,403.94,264.89,399.85,252.81,401.51z M305.87,424.1c-2.51,5.36-0.97,5.27-3.92,0.18
	c-0.4-0.68-0.85-1.39-1.32-2.12c-0.47,0.73-0.92,1.44-1.32,2.12c-2.95,5.1-1.41,5.19-3.92-0.18c-3.46-7.21-14.32-22.42-14.91-39.09
	c2.56,4.97,8.5,8,13.64,6.43c-1.38,5.54-0.38,12.11,3.86,18.06c1.05-1.22,1.92-2.48,2.64-3.73c0.72,1.26,1.59,2.51,2.64,3.73
	c4.25-5.96,5.25-12.52,3.86-18.06c5.14,1.57,11.08-1.45,13.64-6.43C320.19,401.68,309.32,416.9,305.87,424.1z M314.5,412.61
	c0.1-0.17,0.19-0.34,0.29-0.52c0.82-0.66,1.8-1.46,2.99-2.45c8.37-6.92,14.1-11.13,30.67-8.14
	C336.36,399.85,323.49,403.94,314.5,412.61z M329.41,399.66c-3.79,2.51-9.94,7.63-13.94,11.15c0.53-1.01,1.07-2.05,1.63-3.2
	c17.87-37.01-12.57-32.87,33.38-6.32C346.45,400.46,338.41,399.36,329.41,399.66z M362.5,405.94c-8.55-4.81-24.47-10.16-34.25-23.27
	c4.91,2.54,11.44,1.53,14.75-2.74c1.88,4.73,5.98,9.95,13.38,12.54c0.75-7.32-1.62-13.51-5.54-17.6c5.23-1.25,8.88-6.89,8.65-12.5
	c7.7,14.73,5.78,33.43,6.33,41.42C366.28,409.71,367.57,408.85,362.5,405.94z M374.17,370.67c-2.45,4.92-6.01,14.82-7.49,19.45
	c-4.38-52.51-20.54-26.59,19.77-27.43c1.31-0.03,2.52-0.09,3.67-0.16C385.98,364.18,380.12,366.91,374.17,370.67z M407.73,355.76
	c3.32,4.89,4.01,3.49-1.81,3.54c-9.77,0.18-26.19,3.63-41.11-2.76c5.5-0.3,10.66-4.48,11.43-9.86c3.96,3.14,10.08,5.58,17.76,4.07
	c-2.96-6.71-8.05-10.88-13.47-12.43c3.91-3.74,4.3-10.47,1.34-15.22C395.77,331.95,403.31,349.12,407.73,355.76z M402.24,342.42
	c-0.1-0.17-0.2-0.34-0.3-0.51c-0.15-1.05-0.35-2.32-0.59-3.85c-1.71-10.82-2.43-17.97,8.4-31.05
	C402.3,316.81,399.35,330.18,402.24,342.42z M398.66,322.83c0.25,4.58,1.53,12.55,2.53,17.84c-0.59-0.97-1.22-1.97-1.91-3.03
	c-22.62-34.23-34.31-5.38,11.3-32.53C407.85,308.24,402.9,314.76,398.66,322.83z M420.55,296.86c-8.38,5.12-20.9,16.44-36.96,18.49
	c4.62-3.05,7.03-9.3,5.04-14.34c4.97,0.71,11.47-0.29,17.38-5.5c-5.86-4.31-12.33-5.33-17.78-3.93c1.55-5.22-1.43-11.25-6.33-13.86
	c16.41,0.6,31.39,11.63,38.48,15.14C425.66,295.42,425.57,293.86,420.55,296.86z M300.9,266.2c1.38-1.14,3.64-0.88,4.88,0.8
	c1.21-0.66,2.56-0.55,3.56,0.06c1.16-0.25,2.57,0.75,2.08,2.28c-0.72,2.22-4.03,1.12-3.31-1.1c0.12-0.36,0.31-0.63,0.53-0.82
	c-1.52-0.16-3.09,0.89-3.6,2.98C305.63,267.36,303.34,265.32,300.9,266.2z M274.16,291.17c4.6,1.6,4.03,14.56-0.68,15.74
	c4.77-0.95,10.66,10.56,7.15,13.98c3.67-3.25,14.43,3.73,13.08,8.47c0.71-2.12,3.73-3.15,6.92-3.2c3.19,0.05,6.21,1.08,6.92,3.2
	c-1.35-4.74,9.41-11.72,13.08-8.47c-3.5-3.41,2.38-14.93,7.15-13.98c-4.71-1.18-5.29-14.14-0.68-15.74
	c-4.66,1.37-11.54-9.56-8.34-13.28c-3.36,3.56-14.7-2.42-13.76-7.27c-0.4,1.64-2.17,2.77-4.37,3.38c-2.2-0.61-3.97-1.74-4.37-3.38
	c0.94,4.85-10.4,10.82-13.76,7.27C285.69,281.61,278.82,292.54,274.16,291.17z M285.93,281.7c3.33,0.02,9.54-3.27,11.42-6.03
	c0.82,0.49,1.98,0.84,3.27,1.09c1.29-0.25,2.46-0.61,3.27-1.09c1.88,2.76,8.1,6.05,11.42,6.03c0.27,3.35,4.03,9.35,6.92,11.03
	c-1.41,3.04-1.11,10.15,0.57,13.06c-2.72,1.91-5.96,8.22-5.94,11.6c-3.3,0.28-9.21,4.09-10.85,7.03c-1.28-0.61-3.29-0.89-5.39-0.9
	c-2.1,0.01-4.11,0.28-5.39,0.9c-1.65-2.94-7.56-6.76-10.85-7.03c0.02-3.38-3.22-9.69-5.94-11.6c1.68-2.92,1.98-10.03,0.57-13.06
	C281.9,291.05,285.66,285.05,285.93,281.7z M303.35,220c0.36-2.31,3.8-1.76,3.44,0.55C306.43,222.87,302.99,222.31,303.35,220z
	 M326.19,321.25c-0.47,1.09-1.51,1.96-2.88,2.13c-0.04,1.4-0.81,2.53-1.83,3.1c-0.37,1.15-1.93,1.89-2.98,0.69
	c-1.54-1.74,1.06-4.11,2.6-2.36c0.25,0.28,0.38,0.58,0.43,0.88c0.9-1.26,0.79-3.16-0.74-4.66c1.6,1.41,3.48,1.37,4.63,0.34
	c-0.29-0.03-0.6-0.14-0.9-0.36c-1.85-1.4,0.24-4.24,2.09-2.83C327.87,319.13,327.28,320.78,326.19,321.25z M332.78,304.4
	c0.13,1.18-0.34,2.47-1.44,3.3c0.65,1.23,0.54,2.6-0.06,3.62c0.24,1.18-0.74,2.61-2.24,2.11c-2.19-0.73-1.11-4.09,1.08-3.36
	c0.36,0.12,0.62,0.31,0.81,0.54c0.16-1.55-0.88-3.14-2.94-3.66c2.08,0.41,3.68-0.58,4.18-2.06c-0.27,0.13-0.59,0.19-0.96,0.14
	c-2.29-0.28-1.87-3.79,0.41-3.51C333.2,301.71,333.49,303.43,332.78,304.4z M327.78,284.55c1.46-0.63,2.56,0.71,2.42,1.9
	c0.69,0.96,0.92,2.31,0.38,3.59c1.17,0.73,1.75,1.97,1.73,3.16c0.79,0.9,0.65,2.64-0.9,2.97c-2.25,0.48-2.97-2.98-0.72-3.46
	c0.37-0.08,0.69-0.04,0.97,0.06c-0.62-1.42-2.31-2.27-4.34-1.67c2-0.7,2.9-2.37,2.61-3.9c-0.17,0.24-0.42,0.46-0.76,0.61
	C327.03,288.73,325.66,285.47,327.78,284.55z M316.09,271.81c0.95-1.29,2.56-0.69,3.03,0.42c1.07,0.48,1.93,1.54,2.09,2.92
	c1.37,0.04,2.49,0.82,3.05,1.86c1.13,0.38,1.86,1.96,0.68,3.03c-1.72,1.56-4.04-1.07-2.33-2.64c0.28-0.25,0.57-0.39,0.86-0.44
	c-1.24-0.91-3.12-0.8-4.58,0.75c1.39-1.62,1.34-3.53,0.34-4.71c-0.03,0.3-0.13,0.61-0.36,0.91
	C317.5,275.81,314.71,273.69,316.09,271.81z M314.06,330.04c0.62,1.48-0.69,2.6-1.88,2.46c-0.95,0.7-2.28,0.93-3.54,0.38
	c-0.72,1.19-1.94,1.78-3.11,1.75c-0.89,0.8-2.6,0.66-2.92-0.92c-0.47-2.29,2.94-3.02,3.41-0.73c0.08,0.37,0.04,0.7-0.06,0.98
	c1.4-0.63,2.24-2.34,1.65-4.41c0.69,2.04,2.34,2.95,3.84,2.65c-0.24-0.17-0.45-0.42-0.6-0.77
	C309.95,329.28,313.15,327.89,314.06,330.04z M328.68,241.44c7.29-0.16,6.81,9.47,2.31,9.21c-1.43,1.48-3.92-0.54-2.6-2.33
	c1.28-1.74,3.76-0.04,3.02,1.71c3.18-1.65,0.55-8.35-4.38-5.38c-0.43-5.8-7.35-4.15-6.85-0.55c0.98-1.62,3.78-0.53,3.11,1.53
	c-0.69,2.13-3.75,1.21-3.37-0.83C317.23,241.24,324.59,235.24,328.68,241.44z M300.63,83.21c13.77,1.67,20.05-14.2,10.76-19.95
	c-4.45-2.84-9.41-0.45-10.76,3.09c-1.35-3.53-6.31-5.93-10.76-3.09C280.58,69.01,286.86,84.88,300.63,83.21z M289.29,66.68
	c4.17-6.85,14.26-1.19,10.33,5.09c0.47-0.56,0.78-1.14,1-1.73c0.22,0.59,0.53,1.17,1,1.73c-3.92-6.28,6.17-11.93,10.33-5.09
	c3.8,6.19-1.28,14.95-11.33,13.52C290.57,81.63,285.49,72.87,289.29,66.68z M157.79,433.64c-1.32,3.98,6.52,0.75,7.19-5.22
	C161.59,428.51,158.79,430.75,157.79,433.64z M159.41,433.6c0.61-1.01,1.5-1.83,2.51-2.34C161.33,432.25,160.46,433.07,159.41,433.6
	z M242.83,489.39c0.81,4.12,6.01-2.66,3.66-8.18C243.59,483.02,242.27,486.38,242.83,489.39z M244.21,488.53
	c0.03-1.18,0.4-2.34,1.03-3.3C245.21,486.38,244.86,487.55,244.21,488.53z M262.39,115.12c1.62-3.03,1.11-6.61-0.85-8.94
	C258.8,103.03,257.63,111.54,262.39,115.12z M260.75,107.63c0.56,1.04,0.81,2.23,0.74,3.38
	C260.95,109.99,260.68,108.81,260.75,107.63z M176.62,160.42c-0.09-3.45-2.29-6.29-5.14-7.31
	C167.57,151.77,170.74,159.73,176.62,160.42z M173.82,157.31c-0.97-0.6-1.78-1.49-2.3-2.55
	C172.51,155.38,173.32,156.28,173.82,157.31z M124.65,243.21c-1.78-2.94-5.08-4.28-8.05-3.72
	C112.55,240.32,119.22,245.6,124.65,243.21z M120.69,241.94c-1.13-0.03-2.28-0.39-3.25-1.04
	C118.61,240.93,119.75,241.3,120.69,241.94z M111.59,342.17c-3.1,2.77,5.28,3.96,8.8-0.87C117.4,339.66,113.88,340.17,111.59,342.17
	z M113.01,342.96c1.02-0.57,2.19-0.82,3.33-0.75C115.34,342.76,114.17,343.03,113.01,342.96z M272.58,241.44
	c4.09-6.19,11.45-0.2,8.75,3.36c0.38,2.04-2.68,2.97-3.37,0.83c-0.67-2.06,2.13-3.15,3.11-1.53c0.5-3.6-6.42-5.25-6.85,0.55
	c-4.92-2.98-7.55,3.72-4.38,5.38c-0.74-1.75,1.74-3.45,3.02-1.71c1.32,1.79-1.17,3.81-2.6,2.33
	C265.77,250.91,265.29,241.28,272.58,241.44z M247.63,264.64c0.49-7.44,9.81-5.99,9.23-1.53c1.33,1.57-0.86,3.93-2.51,2.43
	c-1.59-1.45,0.29-3.81,1.94-2.91c-1.34-3.37-8.14-1.28-5.66,3.95c-5.73-0.08-4.71,7.06-1.14,6.88c-1.5-1.14-0.19-3.87,1.78-3.01
	c2.03,0.88,0.86,3.89-1.11,3.34C246.39,276.3,241.24,268.2,247.63,264.64z M237.44,297.4c-3.24-6.69,5.55-10.17,7.24-6.02
	c1.93,0.69,1.19,3.84-0.97,3.38c-2.09-0.45-1.62-3.45,0.25-3.5c-2.82-2.24-7.68,3.02-2.95,6.3c-5,2.84-0.6,8.51,2.4,6.54
	c-1.86-0.22-2.07-3.25,0.05-3.51c2.19-0.27,2.66,2.94,0.68,3.45C242.11,308.13,233.66,303.74,237.44,297.4z M248.06,322.07
	c2.01-0.39,2.92,2.72,0.82,3.42c-2.03,0.68-3.11-2.16-1.51-3.16c-3.54-0.51-5.17,6.52,0.54,6.95c-2.93,5,3.66,7.67,5.29,4.45
	c-1.72,0.75-3.39-1.77-1.68-3.07c1.77-1.34,3.75,1.19,2.29,2.64c0.26,4.57-9.22,5.05-9.07-2.35
	C238.65,326.8,244.55,319.33,248.06,322.07z M220.15,428.95C216.49,430.48,218.07,428.61,220.15,428.95L220.15,428.95z
	 M222.74,427.73c-0.06,1.73,0.12,3.46,0.58,5.11c-0.61-2.76-1.97-3.69-3.17-3.89C220.83,428.67,221.68,428.28,222.74,427.73z
	 M294.53,453.66C292.11,456.84,292.56,454.42,294.53,453.66L294.53,453.66z M296.17,451.28c0.8,1.53,1.81,2.93,3.02,4.13
	c-1.89-2.08-3.53-2.19-4.66-1.76C294.98,453.07,295.52,452.3,296.17,451.28z M234.35,163.38
	C234.88,159.4,235.68,161.72,234.35,163.38L234.35,163.38z M234.1,166.27c-1.44-0.92-3.01-1.62-4.65-2.04
	c2.66,0.84,4.13,0.11,4.9-0.85C234.25,164.12,234.16,165.06,234.1,166.27z M176.09,216.46
	C174.59,212.74,176.44,214.34,176.09,216.46L176.09,216.46z M177.3,219.09c-1.7-0.06-3.4,0.13-5.04,0.59c2.71-0.62,3.63-2,3.83-3.22
	C176.37,217.15,176.76,218,177.3,219.09z M150.04,296.74c2.04-1.92,2.16-3.58,1.73-4.74c0.58,0.45,1.34,1,2.34,1.66
	C152.61,294.48,151.23,295.51,150.04,296.74z M151.77,292.01C148.64,289.55,151.03,290,151.77,292.01L151.77,292.01z M168.73,374.77
	c0.83-2.7,0.11-4.2-0.83-4.98c0.72,0.1,1.65,0.19,2.84,0.25C169.84,371.51,169.15,373.1,168.73,374.77z M167.9,369.79
	C163.98,369.25,166.27,368.43,167.9,369.79L167.9,369.79z M294.46,220.55c-0.36-2.31,3.08-2.87,3.44-0.55
	C298.26,222.31,294.82,222.87,294.46,220.55z M272.22,313.43c-1.51,0.5-2.49-0.93-2.24-2.11c-0.61-1.02-0.71-2.38-0.06-3.62
	c-1.1-0.84-1.57-2.12-1.44-3.3c-0.71-0.97-0.42-2.69,1.16-2.88c2.29-0.28,2.7,3.24,0.41,3.51c-0.37,0.05-0.69-0.02-0.96-0.14
	c0.5,1.47,2.1,2.47,4.18,2.06c-2.06,0.52-3.09,2.11-2.94,3.66c0.19-0.23,0.45-0.42,0.81-0.54
	C273.33,309.34,274.41,312.7,272.22,313.43z M268.96,293.21c-0.02-1.19,0.56-2.43,1.73-3.16c-0.54-1.28-0.32-2.63,0.38-3.59
	c-0.14-1.2,0.96-2.54,2.42-1.9c2.12,0.92,0.75,4.18-1.37,3.25c-0.34-0.15-0.59-0.36-0.76-0.61c-0.29,1.53,0.6,3.21,2.61,3.9
	c-2.04-0.6-3.72,0.25-4.34,1.67c0.28-0.1,0.6-0.13,0.97-0.06c2.26,0.48,1.54,3.94-0.72,3.46
	C268.31,295.85,268.16,294.11,268.96,293.21z M285.16,271.81c1.38,1.87-1.41,4-2.79,2.12c-0.22-0.3-0.33-0.61-0.36-0.91
	c-1.01,1.18-1.06,3.08,0.34,4.71c-1.47-1.55-3.34-1.67-4.58-0.75c0.29,0.05,0.59,0.19,0.86,0.44c1.72,1.56-0.61,4.2-2.33,2.64
	c-1.18-1.07-0.45-2.65,0.68-3.03c0.57-1.04,1.68-1.82,3.05-1.86c0.16-1.39,1.02-2.44,2.09-2.92
	C282.6,271.12,284.21,270.52,285.16,271.81z M289.83,269.35c-0.49-1.53,0.92-2.53,2.08-2.28c1-0.62,2.35-0.72,3.56-0.06
	c1.24-1.69,3.5-1.94,4.88-0.8c-2.43-0.88-4.73,1.16-4.14,4.21c-0.51-2.09-2.07-3.14-3.6-2.98c0.22,0.2,0.41,0.46,0.53,0.82
	C293.86,270.47,290.55,271.57,289.83,269.35z M298.64,333.71c-0.33,1.58-2.04,1.72-2.92,0.92c-1.17,0.02-2.39-0.56-3.11-1.75
	c-1.26,0.55-2.59,0.32-3.54-0.38c-1.18,0.14-2.5-0.98-1.88-2.46c0.91-2.15,4.11-0.76,3.2,1.39c-0.15,0.35-0.36,0.6-0.6,0.77
	c1.51,0.3,3.16-0.61,3.84-2.65c-0.59,2.07,0.25,3.78,1.65,4.41c-0.1-0.28-0.13-0.61-0.06-0.98
	C295.71,330.69,299.12,331.42,298.64,333.71z M282.76,327.17c-1.06,1.2-2.61,0.46-2.98-0.69c-1.03-0.57-1.79-1.7-1.83-3.1
	c-1.36-0.16-2.4-1.04-2.88-2.13c-1.09-0.48-1.68-2.12-0.41-3.08c1.84-1.4,3.93,1.43,2.09,2.83c-0.3,0.23-0.6,0.33-0.9,0.36
	c1.16,1.02,3.04,1.07,4.63-0.34c-1.53,1.49-1.64,3.4-0.74,4.66c0.05-0.3,0.19-0.59,0.43-0.88
	C281.7,323.06,284.29,325.42,282.76,327.17z M267.59,356.3c-7.32-0.5-5.89-9.97-1.51-9.38c1.55-1.35,3.87,0.88,2.4,2.55
	c-1.43,1.62-3.75-0.3-2.86-1.97c-3.32,1.36-1.26,8.27,3.89,5.75c-0.08,5.82,6.95,4.78,6.77,1.16c-1.12,1.53-3.81,0.19-2.97-1.8
	c0.87-2.06,3.83-0.87,3.29,1.12C279.07,357.55,271.1,362.78,267.59,356.3z"/>
</svg>
